<?xml version="1.0" encoding="UTF-8" standalone="no"?>
<!DOCTYPE svg PUBLIC "-//W3C//DTD SVG 1.1//EN"
 "http://www.w3.org/Graphics/SVG/1.1/DTD/svg11.dtd">
<!-- Generated by graphviz version 9.0.0 (0)
 -->
<!-- Title: snakemake_dag Pages: 1 -->
<svg width="679pt" height="476pt"
 viewBox="0.00 0.00 678.88 476.00" xmlns="http://www.w3.org/2000/svg" xmlns:xlink="http://www.w3.org/1999/xlink">
<g id="graph0" class="graph" transform="scale(1 1) rotate(0) translate(4 472)">
<title>snakemake_dag</title>
<polygon fill="white" stroke="none" points="-4,4 -4,-472 674.88,-472 674.88,4 -4,4"/>
<!-- 0 -->
<g id="node1" class="node">
<title>0</title>
<path fill="none" stroke="#afd856" stroke-width="2" d="M429.38,-36C429.38,-36 363.88,-36 363.88,-36 357.88,-36 351.88,-30 351.88,-24 351.88,-24 351.88,-12 351.88,-12 351.88,-6 357.88,0 363.88,0 363.88,0 429.38,0 429.38,0 435.38,0 441.38,-6 441.38,-12 441.38,-12 441.38,-24 441.38,-24 441.38,-30 435.38,-36 429.38,-36"/>
<text text-anchor="middle" x="396.62" y="-14.12" font-family="sans" font-size="10.00">FINAL_TARGET</text>
</g>
<!-- 1 -->
<g id="node2" class="node">
<title>1</title>
<path fill="none" stroke="#68d856" stroke-width="2" d="M393.75,-108C393.75,-108 327.5,-108 327.5,-108 321.5,-108 315.5,-102 315.5,-96 315.5,-96 315.5,-84 315.5,-84 315.5,-78 321.5,-72 327.5,-72 327.5,-72 393.75,-72 393.75,-72 399.75,-72 405.75,-78 405.75,-84 405.75,-84 405.75,-96 405.75,-96 405.75,-102 399.75,-108 393.75,-108"/>
<text text-anchor="middle" x="360.62" y="-86.12" font-family="sans" font-size="10.00">render_bs4_book</text>
</g>
<!-- 1&#45;&gt;0 -->
<g id="edge2" class="edge">
<title>1&#45;&gt;0</title>
<path fill="none" stroke="grey" stroke-width="2" d="M369.71,-71.34C373.31,-64.34 377.54,-56.12 381.57,-48.28"/>
<polygon fill="grey" stroke="grey" stroke-width="2" points="384.57,-50.09 386.03,-39.59 378.35,-46.89 384.57,-50.09"/>
</g>
<!-- 2 -->
<g id="node3" class="node">
<title>2</title>
<path fill="none" stroke="#d8ac56" stroke-width="2" d="M63.25,-180C63.25,-180 12,-180 12,-180 6,-180 0,-174 0,-168 0,-168 0,-156 0,-156 0,-150 6,-144 12,-144 12,-144 63.25,-144 63.25,-144 69.25,-144 75.25,-150 75.25,-156 75.25,-156 75.25,-168 75.25,-168 75.25,-174 69.25,-180 63.25,-180"/>
<text text-anchor="middle" x="37.62" y="-158.12" font-family="sans" font-size="10.00">generate_tree</text>
</g>
<!-- 2&#45;&gt;1 -->
<g id="edge3" class="edge">
<title>2&#45;&gt;1</title>
<path fill="none" stroke="grey" stroke-width="2" d="M76.2,-146.5C79.03,-145.61 81.86,-144.76 84.62,-144 158.6,-123.65 245.84,-108.31 302.13,-99.49"/>
<polygon fill="grey" stroke="grey" stroke-width="2" points="302.36,-103 311.71,-98.01 301.29,-96.08 302.36,-103"/>
</g>
<!-- 3 -->
<g id="node4" class="node">
<title>3</title>
<path fill="none" stroke="#d86e56" stroke-width="2" d="M177.75,-180C177.75,-180 105.5,-180 105.5,-180 99.5,-180 93.5,-174 93.5,-168 93.5,-168 93.5,-156 93.5,-156 93.5,-150 99.5,-144 105.5,-144 105.5,-144 177.75,-144 177.75,-144 183.75,-144 189.75,-150 189.75,-156 189.75,-156 189.75,-168 189.75,-168 189.75,-174 183.75,-180 177.75,-180"/>
<text text-anchor="middle" x="141.62" y="-158.12" font-family="sans" font-size="10.00">snakemake_report</text>
</g>
<!-- 3&#45;&gt;1 -->
<g id="edge7" class="edge">
<title>3&#45;&gt;1</title>
<path fill="none" stroke="grey" stroke-width="2" d="M190.5,-145.38C223.51,-134.83 267.25,-120.85 302.11,-109.7"/>
<polygon fill="grey" stroke="grey" stroke-width="2" points="303.18,-113.04 311.64,-106.66 301.05,-106.37 303.18,-113.04"/>
</g>
<!-- 4 -->
<g id="node5" class="node">
<title>4</title>
<path fill="none" stroke="#5682d8" stroke-width="2" d="M658.88,-180C658.88,-180 584.38,-180 584.38,-180 578.38,-180 572.38,-174 572.38,-168 572.38,-168 572.38,-156 572.38,-156 572.38,-150 578.38,-144 584.38,-144 584.38,-144 658.88,-144 658.88,-144 664.88,-144 670.88,-150 670.88,-156 670.88,-156 670.88,-168 670.88,-168 670.88,-174 664.88,-180 658.88,-180"/>
<text text-anchor="middle" x="621.62" y="-158.12" font-family="sans" font-size="10.00">generate_rulegraph</text>
</g>
<!-- 4&#45;&gt;0 -->
<g id="edge1" class="edge">
<title>4&#45;&gt;0</title>
<path fill="none" stroke="grey" stroke-width="2" d="M593.13,-143.02C553.23,-117.84 480.58,-71.99 435.67,-43.64"/>
<polygon fill="grey" stroke="grey" stroke-width="2" points="437.77,-40.83 427.45,-38.45 434.04,-46.75 437.77,-40.83"/>
</g>
<!-- 4&#45;&gt;1 -->
<g id="edge8" class="edge">
<title>4&#45;&gt;1</title>
<path fill="none" stroke="grey" stroke-width="2" d="M571.67,-146.25C568.95,-145.48 566.25,-144.73 563.62,-144 515.06,-130.55 459.69,-116.15 419.06,-105.77"/>
<polygon fill="grey" stroke="grey" stroke-width="2" points="420.17,-102.44 409.62,-103.36 418.44,-109.22 420.17,-102.44"/>
</g>
<!-- 5 -->
<g id="node6" class="node">
<title>5</title>
<path fill="none" stroke="#56d882" stroke-width="2" d="M285,-180C285,-180 220.25,-180 220.25,-180 214.25,-180 208.25,-174 208.25,-168 208.25,-168 208.25,-156 208.25,-156 208.25,-150 214.25,-144 220.25,-144 220.25,-144 285,-144 285,-144 291,-144 297,-150 297,-156 297,-156 297,-168 297,-168 297,-174 291,-180 285,-180"/>
<text text-anchor="middle" x="252.62" y="-158.12" font-family="sans" font-size="10.00">import_metadata</text>
</g>
<!-- 5&#45;&gt;1 -->
<g id="edge9" class="edge">
<title>5&#45;&gt;1</title>
<path fill="none" stroke="grey" stroke-width="2" d="M280.16,-143.15C292.98,-134.84 308.44,-124.82 322.38,-115.79"/>
<polygon fill="grey" stroke="grey" stroke-width="2" points="324.11,-118.83 330.6,-110.46 320.31,-112.96 324.11,-118.83"/>
</g>
<!-- 6 -->
<g id="node7" class="node">
<title>6</title>
<path fill="none" stroke="#56d86b" stroke-width="2" d="M346.88,-324C346.88,-324 302.38,-324 302.38,-324 296.38,-324 290.38,-318 290.38,-312 290.38,-312 290.38,-300 290.38,-300 290.38,-294 296.38,-288 302.38,-288 302.38,-288 346.88,-288 346.88,-288 352.88,-288 358.88,-294 358.88,-300 358.88,-300 358.88,-312 358.88,-312 358.88,-318 352.88,-324 346.88,-324"/>
<text text-anchor="middle" x="324.62" y="-302.12" font-family="sans" font-size="10.00">multiqc_raw</text>
</g>
<!-- 6&#45;&gt;1 -->
<g id="edge6" class="edge">
<title>6&#45;&gt;1</title>
<path fill="none" stroke="grey" stroke-width="2" d="M325.59,-287.43C327.46,-257.63 332.45,-195.43 343.62,-144 345.26,-136.47 347.53,-128.49 349.87,-121.07"/>
<polygon fill="grey" stroke="grey" stroke-width="2" points="353.12,-122.38 352.97,-111.79 346.48,-120.17 353.12,-122.38"/>
</g>
<!-- 7 -->
<g id="node8" class="node">
<title>7</title>
<path fill="none" stroke="#d8c356" stroke-width="2" d="M344.62,-396C344.62,-396 304.62,-396 304.62,-396 298.62,-396 292.62,-390 292.62,-384 292.62,-384 292.62,-372 292.62,-372 292.62,-366 298.62,-360 304.62,-360 304.62,-360 344.62,-360 344.62,-360 350.62,-360 356.62,-366 356.62,-372 356.62,-372 356.62,-384 356.62,-384 356.62,-390 350.62,-396 344.62,-396"/>
<text text-anchor="middle" x="324.62" y="-374.12" font-family="sans" font-size="10.00">fastqc_raw</text>
</g>
<!-- 7&#45;&gt;6 -->
<g id="edge10" class="edge">
<title>7&#45;&gt;6</title>
<path fill="none" stroke="grey" stroke-width="2" d="M324.62,-359.34C324.62,-352.75 324.62,-345.08 324.62,-337.67"/>
<polygon fill="grey" stroke="grey" stroke-width="2" points="328.13,-337.93 324.63,-327.93 321.13,-337.93 328.13,-337.93"/>
</g>
<!-- 8 -->
<g id="node9" class="node">
<title>8</title>
<path fill="none" stroke="#56d8a9" stroke-width="2" d="M404.62,-468C404.62,-468 340.62,-468 340.62,-468 334.62,-468 328.62,-462 328.62,-456 328.62,-456 328.62,-444 328.62,-444 328.62,-438 334.62,-432 340.62,-432 340.62,-432 404.62,-432 404.62,-432 410.62,-432 416.62,-438 416.62,-444 416.62,-444 416.62,-456 416.62,-456 416.62,-462 410.62,-468 404.62,-468"/>
<text text-anchor="middle" x="372.62" y="-446.12" font-family="sans" font-size="10.00">import_rawreads</text>
</g>
<!-- 8&#45;&gt;7 -->
<g id="edge11" class="edge">
<title>8&#45;&gt;7</title>
<path fill="none" stroke="grey" stroke-width="2" d="M360.51,-431.34C355.55,-424.1 349.68,-415.53 344.13,-407.45"/>
<polygon fill="grey" stroke="grey" stroke-width="2" points="347.15,-405.67 338.61,-399.4 341.38,-409.62 347.15,-405.67"/>
</g>
<!-- 12 -->
<g id="node13" class="node">
<title>12</title>
<path fill="none" stroke="#d88556" stroke-width="2" d="M456.25,-396C456.25,-396 387,-396 387,-396 381,-396 375,-390 375,-384 375,-384 375,-372 375,-372 375,-366 381,-360 387,-360 387,-360 456.25,-360 456.25,-360 462.25,-360 468.25,-366 468.25,-372 468.25,-372 468.25,-384 468.25,-384 468.25,-390 462.25,-396 456.25,-396"/>
<text text-anchor="middle" x="421.62" y="-374.12" font-family="sans" font-size="10.00">bbduk_trim_reads</text>
</g>
<!-- 8&#45;&gt;12 -->
<g id="edge15" class="edge">
<title>8&#45;&gt;12</title>
<path fill="none" stroke="grey" stroke-width="2" d="M384.99,-431.34C390.06,-424.1 396.05,-415.53 401.71,-407.45"/>
<polygon fill="grey" stroke="grey" stroke-width="2" points="404.49,-409.58 407.36,-399.38 398.76,-405.57 404.49,-409.58"/>
</g>
<!-- 9 -->
<g id="node10" class="node">
<title>9</title>
<path fill="none" stroke="#80d856" stroke-width="2" d="M428.62,-180C428.62,-180 364.62,-180 364.62,-180 358.62,-180 352.62,-174 352.62,-168 352.62,-168 352.62,-156 352.62,-156 352.62,-150 358.62,-144 364.62,-144 364.62,-144 428.62,-144 428.62,-144 434.62,-144 440.62,-150 440.62,-156 440.62,-156 440.62,-168 440.62,-168 440.62,-174 434.62,-180 428.62,-180"/>
<text text-anchor="middle" x="396.62" y="-158.12" font-family="sans" font-size="10.00">multiqc_trimmed</text>
</g>
<!-- 9&#45;&gt;1 -->
<g id="edge5" class="edge">
<title>9&#45;&gt;1</title>
<path fill="none" stroke="grey" stroke-width="2" d="M387.54,-143.34C383.94,-136.34 379.71,-128.12 375.68,-120.28"/>
<polygon fill="grey" stroke="grey" stroke-width="2" points="378.9,-118.89 371.22,-111.59 372.68,-122.09 378.9,-118.89"/>
</g>
<!-- 10 -->
<g id="node11" class="node">
<title>10</title>
<path fill="none" stroke="#569ad8" stroke-width="2" d="M427.38,-252C427.38,-252 367.88,-252 367.88,-252 361.88,-252 355.88,-246 355.88,-240 355.88,-240 355.88,-228 355.88,-228 355.88,-222 361.88,-216 367.88,-216 367.88,-216 427.38,-216 427.38,-216 433.38,-216 439.38,-222 439.38,-228 439.38,-228 439.38,-240 439.38,-240 439.38,-246 433.38,-252 427.38,-252"/>
<text text-anchor="middle" x="397.62" y="-230.12" font-family="sans" font-size="10.00">fastqc_trimmed</text>
</g>
<!-- 10&#45;&gt;9 -->
<g id="edge12" class="edge">
<title>10&#45;&gt;9</title>
<path fill="none" stroke="grey" stroke-width="2" d="M397.37,-215.34C397.28,-208.75 397.17,-201.08 397.06,-193.67"/>
<polygon fill="grey" stroke="grey" stroke-width="2" points="400.57,-193.88 396.92,-183.93 393.57,-193.98 400.57,-193.88"/>
</g>
<!-- 11 -->
<g id="node12" class="node">
<title>11</title>
<path fill="none" stroke="#97d856" stroke-width="2" d="M454.75,-324C454.75,-324 388.5,-324 388.5,-324 382.5,-324 376.5,-318 376.5,-312 376.5,-312 376.5,-300 376.5,-300 376.5,-294 382.5,-288 388.5,-288 388.5,-288 454.75,-288 454.75,-288 460.75,-288 466.75,-294 466.75,-300 466.75,-300 466.75,-312 466.75,-312 466.75,-318 460.75,-324 454.75,-324"/>
<text text-anchor="middle" x="421.62" y="-302.12" font-family="sans" font-size="10.00">bbduk_decontam</text>
</g>
<!-- 11&#45;&gt;10 -->
<g id="edge13" class="edge">
<title>11&#45;&gt;10</title>
<path fill="none" stroke="grey" stroke-width="2" d="M415.57,-287.34C413.26,-280.59 410.55,-272.69 407.95,-265.11"/>
<polygon fill="grey" stroke="grey" stroke-width="2" points="411.3,-264.09 404.74,-255.77 404.68,-266.36 411.3,-264.09"/>
</g>
<!-- 14 -->
<g id="node15" class="node">
<title>14</title>
<path fill="none" stroke="#56d89a" stroke-width="2" d="M538.12,-252C538.12,-252 471.12,-252 471.12,-252 465.12,-252 459.12,-246 459.12,-240 459.12,-240 459.12,-228 459.12,-228 459.12,-222 465.12,-216 471.12,-216 471.12,-216 538.12,-216 538.12,-216 544.12,-216 550.12,-222 550.12,-228 550.12,-228 550.12,-240 550.12,-240 550.12,-246 544.12,-252 538.12,-252"/>
<text text-anchor="middle" x="504.62" y="-230.12" font-family="sans" font-size="10.00">fastqc_decontam</text>
</g>
<!-- 11&#45;&gt;14 -->
<g id="edge17" class="edge">
<title>11&#45;&gt;14</title>
<path fill="none" stroke="grey" stroke-width="2" d="M442.57,-287.34C451.93,-279.44 463.17,-269.96 473.49,-261.26"/>
<polygon fill="grey" stroke="grey" stroke-width="2" points="475.7,-263.98 481.08,-254.85 471.18,-258.62 475.7,-263.98"/>
</g>
<!-- 12&#45;&gt;11 -->
<g id="edge14" class="edge">
<title>12&#45;&gt;11</title>
<path fill="none" stroke="grey" stroke-width="2" d="M421.62,-359.34C421.62,-352.75 421.62,-345.08 421.62,-337.67"/>
<polygon fill="grey" stroke="grey" stroke-width="2" points="425.13,-337.93 421.63,-327.93 418.13,-337.93 425.13,-337.93"/>
</g>
<!-- 13 -->
<g id="node14" class="node">
<title>13</title>
<path fill="none" stroke="#56a9d8" stroke-width="2" d="M542.38,-180C542.38,-180 470.88,-180 470.88,-180 464.88,-180 458.88,-174 458.88,-168 458.88,-168 458.88,-156 458.88,-156 458.88,-150 464.88,-144 470.88,-144 470.88,-144 542.38,-144 542.38,-144 548.38,-144 554.38,-150 554.38,-156 554.38,-156 554.38,-168 554.38,-168 554.38,-174 548.38,-180 542.38,-180"/>
<text text-anchor="middle" x="506.62" y="-158.12" font-family="sans" font-size="10.00">multiqc_decontam</text>
</g>
<!-- 13&#45;&gt;1 -->
<g id="edge4" class="edge">
<title>13&#45;&gt;1</title>
<path fill="none" stroke="grey" stroke-width="2" d="M469.41,-143.15C451.28,-134.47 429.26,-123.91 409.77,-114.56"/>
<polygon fill="grey" stroke="grey" stroke-width="2" points="411.29,-111.41 400.76,-110.24 408.26,-117.72 411.29,-111.41"/>
</g>
<!-- 14&#45;&gt;13 -->
<g id="edge16" class="edge">
<title>14&#45;&gt;13</title>
<path fill="none" stroke="grey" stroke-width="2" d="M505.13,-215.34C505.32,-208.75 505.54,-201.08 505.75,-193.67"/>
<polygon fill="grey" stroke="grey" stroke-width="2" points="509.24,-194.02 506.03,-183.93 502.24,-193.82 509.24,-194.02"/>
</g>
</g>
</svg>
