<?xml version="1.0" encoding="UTF-8" standalone="no"?>
<!DOCTYPE svg PUBLIC "-//W3C//DTD SVG 1.1//EN"
 "http://www.w3.org/Graphics/SVG/1.1/DTD/svg11.dtd">
<!-- Generated by graphviz version 9.0.0 (0)
 -->
<!-- Title: snakemake_dag Pages: 1 -->
<svg width="678pt" height="476pt"
 viewBox="0.00 0.00 678.38 476.00" xmlns="http://www.w3.org/2000/svg" xmlns:xlink="http://www.w3.org/1999/xlink">
<g id="graph0" class="graph" transform="scale(1 1) rotate(0) translate(4 472)">
<title>snakemake_dag</title>
<polygon fill="white" stroke="none" points="-4,4 -4,-472 674.38,-472 674.38,4 -4,4"/>
<!-- 0 -->
<g id="node1" class="node">
<title>0</title>
<path fill="none" stroke="#68d856" stroke-width="2" d="M401.38,-36C401.38,-36 335.88,-36 335.88,-36 329.88,-36 323.88,-30 323.88,-24 323.88,-24 323.88,-12 323.88,-12 323.88,-6 329.88,0 335.88,0 335.88,0 401.38,0 401.38,0 407.38,0 413.38,-6 413.38,-12 413.38,-12 413.38,-24 413.38,-24 413.38,-30 407.38,-36 401.38,-36"/>
<text text-anchor="middle" x="368.62" y="-14.12" font-family="sans" font-size="10.00">FINAL_TARGET</text>
</g>
<!-- 1 -->
<g id="node2" class="node">
<title>1</title>
<path fill="none" stroke="#56d86b" stroke-width="2" d="M401.75,-108C401.75,-108 335.5,-108 335.5,-108 329.5,-108 323.5,-102 323.5,-96 323.5,-96 323.5,-84 323.5,-84 323.5,-78 329.5,-72 335.5,-72 335.5,-72 401.75,-72 401.75,-72 407.75,-72 413.75,-78 413.75,-84 413.75,-84 413.75,-96 413.75,-96 413.75,-102 407.75,-108 401.75,-108"/>
<text text-anchor="middle" x="368.62" y="-86.12" font-family="sans" font-size="10.00">render_bs4_book</text>
</g>
<!-- 1&#45;&gt;0 -->
<g id="edge1" class="edge">
<title>1&#45;&gt;0</title>
<path fill="none" stroke="grey" stroke-width="2" d="M368.62,-71.34C368.62,-64.75 368.62,-57.08 368.62,-49.67"/>
<polygon fill="grey" stroke="grey" stroke-width="2" points="372.13,-49.93 368.63,-39.93 365.13,-49.93 372.13,-49.93"/>
</g>
<!-- 2 -->
<g id="node3" class="node">
<title>2</title>
<path fill="none" stroke="#5682d8" stroke-width="2" d="M63.25,-180C63.25,-180 12,-180 12,-180 6,-180 0,-174 0,-168 0,-168 0,-156 0,-156 0,-150 6,-144 12,-144 12,-144 63.25,-144 63.25,-144 69.25,-144 75.25,-150 75.25,-156 75.25,-156 75.25,-168 75.25,-168 75.25,-174 69.25,-180 63.25,-180"/>
<text text-anchor="middle" x="37.62" y="-158.12" font-family="sans" font-size="10.00">generate_tree</text>
</g>
<!-- 2&#45;&gt;1 -->
<g id="edge5" class="edge">
<title>2&#45;&gt;1</title>
<path fill="none" stroke="grey" stroke-width="2" d="M76.19,-146.49C79.03,-145.59 81.86,-144.75 84.62,-144 161.56,-123.06 252.47,-107.69 310.32,-99.04"/>
<polygon fill="grey" stroke="grey" stroke-width="2" points="310.48,-102.56 319.86,-97.64 309.46,-95.63 310.48,-102.56"/>
</g>
<!-- 3 -->
<g id="node4" class="node">
<title>3</title>
<path fill="none" stroke="#56d89a" stroke-width="2" d="M177.75,-180C177.75,-180 105.5,-180 105.5,-180 99.5,-180 93.5,-174 93.5,-168 93.5,-168 93.5,-156 93.5,-156 93.5,-150 99.5,-144 105.5,-144 105.5,-144 177.75,-144 177.75,-144 183.75,-144 189.75,-150 189.75,-156 189.75,-156 189.75,-168 189.75,-168 189.75,-174 183.75,-180 177.75,-180"/>
<text text-anchor="middle" x="141.62" y="-158.12" font-family="sans" font-size="10.00">snakemake_report</text>
</g>
<!-- 3&#45;&gt;1 -->
<g id="edge2" class="edge">
<title>3&#45;&gt;1</title>
<path fill="none" stroke="grey" stroke-width="2" d="M190.6,-145.9C225.85,-135.03 273.53,-120.33 310.67,-108.87"/>
<polygon fill="grey" stroke="grey" stroke-width="2" points="311.41,-112.31 319.94,-106.01 309.35,-105.62 311.41,-112.31"/>
</g>
<!-- 4 -->
<g id="node5" class="node">
<title>4</title>
<path fill="none" stroke="#566bd8" stroke-width="2" d="M293.88,-180C293.88,-180 219.38,-180 219.38,-180 213.38,-180 207.38,-174 207.38,-168 207.38,-168 207.38,-156 207.38,-156 207.38,-150 213.38,-144 219.38,-144 219.38,-144 293.88,-144 293.88,-144 299.88,-144 305.88,-150 305.88,-156 305.88,-156 305.88,-168 305.88,-168 305.88,-174 299.88,-180 293.88,-180"/>
<text text-anchor="middle" x="256.62" y="-158.12" font-family="sans" font-size="10.00">generate_rulegraph</text>
</g>
<!-- 4&#45;&gt;1 -->
<g id="edge6" class="edge">
<title>4&#45;&gt;1</title>
<path fill="none" stroke="grey" stroke-width="2" d="M285.18,-143.15C298.6,-134.76 314.83,-124.62 329.39,-115.52"/>
<polygon fill="grey" stroke="grey" stroke-width="2" points="330.93,-118.68 337.56,-110.42 327.22,-112.75 330.93,-118.68"/>
</g>
<!-- 5 -->
<g id="node6" class="node">
<title>5</title>
<path fill="none" stroke="#d89556" stroke-width="2" d="M401,-180C401,-180 336.25,-180 336.25,-180 330.25,-180 324.25,-174 324.25,-168 324.25,-168 324.25,-156 324.25,-156 324.25,-150 330.25,-144 336.25,-144 336.25,-144 401,-144 401,-144 407,-144 413,-150 413,-156 413,-156 413,-168 413,-168 413,-174 407,-180 401,-180"/>
<text text-anchor="middle" x="368.62" y="-158.12" font-family="sans" font-size="10.00">import_metadata</text>
</g>
<!-- 5&#45;&gt;1 -->
<g id="edge8" class="edge">
<title>5&#45;&gt;1</title>
<path fill="none" stroke="grey" stroke-width="2" d="M368.62,-143.34C368.62,-136.75 368.62,-129.08 368.62,-121.67"/>
<polygon fill="grey" stroke="grey" stroke-width="2" points="372.13,-121.93 368.63,-111.93 365.13,-121.93 372.13,-121.93"/>
</g>
<!-- 6 -->
<g id="node7" class="node">
<title>6</title>
<path fill="none" stroke="#97d856" stroke-width="2" d="M462.88,-324C462.88,-324 418.38,-324 418.38,-324 412.38,-324 406.38,-318 406.38,-312 406.38,-312 406.38,-300 406.38,-300 406.38,-294 412.38,-288 418.38,-288 418.38,-288 462.88,-288 462.88,-288 468.88,-288 474.88,-294 474.88,-300 474.88,-300 474.88,-312 474.88,-312 474.88,-318 468.88,-324 462.88,-324"/>
<text text-anchor="middle" x="440.62" y="-302.12" font-family="sans" font-size="10.00">multiqc_raw</text>
</g>
<!-- 6&#45;&gt;1 -->
<g id="edge4" class="edge">
<title>6&#45;&gt;1</title>
<path fill="none" stroke="grey" stroke-width="2" d="M442.2,-287.03C444.14,-256.12 444.71,-191.61 421.62,-144 416.9,-134.26 409.65,-125.25 402.02,-117.53"/>
<polygon fill="grey" stroke="grey" stroke-width="2" points="404.57,-115.13 394.87,-110.86 399.79,-120.24 404.57,-115.13"/>
</g>
<!-- 7 -->
<g id="node8" class="node">
<title>7</title>
<path fill="none" stroke="#56c1d8" stroke-width="2" d="M460.62,-396C460.62,-396 420.62,-396 420.62,-396 414.62,-396 408.62,-390 408.62,-384 408.62,-384 408.62,-372 408.62,-372 408.62,-366 414.62,-360 420.62,-360 420.62,-360 460.62,-360 460.62,-360 466.62,-360 472.62,-366 472.62,-372 472.62,-372 472.62,-384 472.62,-384 472.62,-390 466.62,-396 460.62,-396"/>
<text text-anchor="middle" x="440.62" y="-374.12" font-family="sans" font-size="10.00">fastqc_raw</text>
</g>
<!-- 7&#45;&gt;6 -->
<g id="edge9" class="edge">
<title>7&#45;&gt;6</title>
<path fill="none" stroke="grey" stroke-width="2" d="M440.62,-359.34C440.62,-352.75 440.62,-345.08 440.62,-337.67"/>
<polygon fill="grey" stroke="grey" stroke-width="2" points="444.13,-337.93 440.63,-327.93 437.13,-337.93 444.13,-337.93"/>
</g>
<!-- 8 -->
<g id="node9" class="node">
<title>8</title>
<path fill="none" stroke="#d6d856" stroke-width="2" d="M520.62,-468C520.62,-468 456.62,-468 456.62,-468 450.62,-468 444.62,-462 444.62,-456 444.62,-456 444.62,-444 444.62,-444 444.62,-438 450.62,-432 456.62,-432 456.62,-432 520.62,-432 520.62,-432 526.62,-432 532.62,-438 532.62,-444 532.62,-444 532.62,-456 532.62,-456 532.62,-462 526.62,-468 520.62,-468"/>
<text text-anchor="middle" x="488.62" y="-446.12" font-family="sans" font-size="10.00">import_rawreads</text>
</g>
<!-- 8&#45;&gt;7 -->
<g id="edge10" class="edge">
<title>8&#45;&gt;7</title>
<path fill="none" stroke="grey" stroke-width="2" d="M476.51,-431.34C471.55,-424.1 465.68,-415.53 460.13,-407.45"/>
<polygon fill="grey" stroke="grey" stroke-width="2" points="463.15,-405.67 454.61,-399.4 457.38,-409.62 463.15,-405.67"/>
</g>
<!-- 12 -->
<g id="node13" class="node">
<title>12</title>
<path fill="none" stroke="#d8ac56" stroke-width="2" d="M572.25,-396C572.25,-396 503,-396 503,-396 497,-396 491,-390 491,-384 491,-384 491,-372 491,-372 491,-366 497,-360 503,-360 503,-360 572.25,-360 572.25,-360 578.25,-360 584.25,-366 584.25,-372 584.25,-372 584.25,-384 584.25,-384 584.25,-390 578.25,-396 572.25,-396"/>
<text text-anchor="middle" x="537.62" y="-374.12" font-family="sans" font-size="10.00">bbduk_trim_reads</text>
</g>
<!-- 8&#45;&gt;12 -->
<g id="edge14" class="edge">
<title>8&#45;&gt;12</title>
<path fill="none" stroke="grey" stroke-width="2" d="M500.99,-431.34C506.06,-424.1 512.05,-415.53 517.71,-407.45"/>
<polygon fill="grey" stroke="grey" stroke-width="2" points="520.49,-409.58 523.36,-399.38 514.76,-405.57 520.49,-409.58"/>
</g>
<!-- 9 -->
<g id="node10" class="node">
<title>9</title>
<path fill="none" stroke="#c6d856" stroke-width="2" d="M544.62,-180C544.62,-180 480.62,-180 480.62,-180 474.62,-180 468.62,-174 468.62,-168 468.62,-168 468.62,-156 468.62,-156 468.62,-150 474.62,-144 480.62,-144 480.62,-144 544.62,-144 544.62,-144 550.62,-144 556.62,-150 556.62,-156 556.62,-156 556.62,-168 556.62,-168 556.62,-174 550.62,-180 544.62,-180"/>
<text text-anchor="middle" x="512.62" y="-158.12" font-family="sans" font-size="10.00">multiqc_trimmed</text>
</g>
<!-- 9&#45;&gt;1 -->
<g id="edge3" class="edge">
<title>9&#45;&gt;1</title>
<path fill="none" stroke="grey" stroke-width="2" d="M475.92,-143.15C458.04,-134.47 436.32,-123.91 417.1,-114.56"/>
<polygon fill="grey" stroke="grey" stroke-width="2" points="418.76,-111.48 408.24,-110.26 415.7,-117.78 418.76,-111.48"/>
</g>
<!-- 10 -->
<g id="node11" class="node">
<title>10</title>
<path fill="none" stroke="#56a9d8" stroke-width="2" d="M543.38,-252C543.38,-252 483.88,-252 483.88,-252 477.88,-252 471.88,-246 471.88,-240 471.88,-240 471.88,-228 471.88,-228 471.88,-222 477.88,-216 483.88,-216 483.88,-216 543.38,-216 543.38,-216 549.38,-216 555.38,-222 555.38,-228 555.38,-228 555.38,-240 555.38,-240 555.38,-246 549.38,-252 543.38,-252"/>
<text text-anchor="middle" x="513.62" y="-230.12" font-family="sans" font-size="10.00">fastqc_trimmed</text>
</g>
<!-- 10&#45;&gt;9 -->
<g id="edge11" class="edge">
<title>10&#45;&gt;9</title>
<path fill="none" stroke="grey" stroke-width="2" d="M513.37,-215.34C513.28,-208.75 513.17,-201.08 513.06,-193.67"/>
<polygon fill="grey" stroke="grey" stroke-width="2" points="516.57,-193.88 512.92,-183.93 509.57,-193.98 516.57,-193.88"/>
</g>
<!-- 11 -->
<g id="node12" class="node">
<title>11</title>
<path fill="none" stroke="#59d856" stroke-width="2" d="M570.75,-324C570.75,-324 504.5,-324 504.5,-324 498.5,-324 492.5,-318 492.5,-312 492.5,-312 492.5,-300 492.5,-300 492.5,-294 498.5,-288 504.5,-288 504.5,-288 570.75,-288 570.75,-288 576.75,-288 582.75,-294 582.75,-300 582.75,-300 582.75,-312 582.75,-312 582.75,-318 576.75,-324 570.75,-324"/>
<text text-anchor="middle" x="537.62" y="-302.12" font-family="sans" font-size="10.00">bbduk_decontam</text>
</g>
<!-- 11&#45;&gt;10 -->
<g id="edge12" class="edge">
<title>11&#45;&gt;10</title>
<path fill="none" stroke="grey" stroke-width="2" d="M531.57,-287.34C529.26,-280.59 526.55,-272.69 523.95,-265.11"/>
<polygon fill="grey" stroke="grey" stroke-width="2" points="527.3,-264.09 520.74,-255.77 520.68,-266.36 527.3,-264.09"/>
</g>
<!-- 14 -->
<g id="node15" class="node">
<title>14</title>
<path fill="none" stroke="#56d8a9" stroke-width="2" d="M654.12,-252C654.12,-252 587.12,-252 587.12,-252 581.12,-252 575.12,-246 575.12,-240 575.12,-240 575.12,-228 575.12,-228 575.12,-222 581.12,-216 587.12,-216 587.12,-216 654.12,-216 654.12,-216 660.12,-216 666.12,-222 666.12,-228 666.12,-228 666.12,-240 666.12,-240 666.12,-246 660.12,-252 654.12,-252"/>
<text text-anchor="middle" x="620.62" y="-230.12" font-family="sans" font-size="10.00">fastqc_decontam</text>
</g>
<!-- 11&#45;&gt;14 -->
<g id="edge16" class="edge">
<title>11&#45;&gt;14</title>
<path fill="none" stroke="grey" stroke-width="2" d="M558.57,-287.34C567.93,-279.44 579.17,-269.96 589.49,-261.26"/>
<polygon fill="grey" stroke="grey" stroke-width="2" points="591.7,-263.98 597.08,-254.85 587.18,-258.62 591.7,-263.98"/>
</g>
<!-- 12&#45;&gt;11 -->
<g id="edge13" class="edge">
<title>12&#45;&gt;11</title>
<path fill="none" stroke="grey" stroke-width="2" d="M537.62,-359.34C537.62,-352.75 537.62,-345.08 537.62,-337.67"/>
<polygon fill="grey" stroke="grey" stroke-width="2" points="541.13,-337.93 537.63,-327.93 534.13,-337.93 541.13,-337.93"/>
</g>
<!-- 13 -->
<g id="node14" class="node">
<title>13</title>
<path fill="none" stroke="#d86e56" stroke-width="2" d="M658.38,-180C658.38,-180 586.88,-180 586.88,-180 580.88,-180 574.88,-174 574.88,-168 574.88,-168 574.88,-156 574.88,-156 574.88,-150 580.88,-144 586.88,-144 586.88,-144 658.38,-144 658.38,-144 664.38,-144 670.38,-150 670.38,-156 670.38,-156 670.38,-168 670.38,-168 670.38,-174 664.38,-180 658.38,-180"/>
<text text-anchor="middle" x="622.62" y="-158.12" font-family="sans" font-size="10.00">multiqc_decontam</text>
</g>
<!-- 13&#45;&gt;1 -->
<g id="edge7" class="edge">
<title>13&#45;&gt;1</title>
<path fill="none" stroke="grey" stroke-width="2" d="M574.14,-146.44C571.26,-145.61 568.41,-144.79 565.62,-144 519.15,-130.82 466.26,-116.64 427,-106.26"/>
<polygon fill="grey" stroke="grey" stroke-width="2" points="427.99,-102.9 417.43,-103.74 426.2,-109.67 427.99,-102.9"/>
</g>
<!-- 14&#45;&gt;13 -->
<g id="edge15" class="edge">
<title>14&#45;&gt;13</title>
<path fill="none" stroke="grey" stroke-width="2" d="M621.13,-215.34C621.32,-208.75 621.54,-201.08 621.75,-193.67"/>
<polygon fill="grey" stroke="grey" stroke-width="2" points="625.24,-194.02 622.03,-183.93 618.24,-193.82 625.24,-194.02"/>
</g>
</g>
</svg>
