<?xml version="1.0" encoding="UTF-8" standalone="no"?>
<!DOCTYPE svg PUBLIC "-//W3C//DTD SVG 1.1//EN"
 "http://www.w3.org/Graphics/SVG/1.1/DTD/svg11.dtd">
<!-- Generated by graphviz version 6.0.1 (0)
 -->
<!-- Title: snakemake_dag Pages: 1 -->
<svg width="1062pt" height="404pt"
 viewBox="0.00 0.00 1061.95 404.00" xmlns="http://www.w3.org/2000/svg" xmlns:xlink="http://www.w3.org/1999/xlink">
<g id="graph0" class="graph" transform="scale(1 1) rotate(0) translate(4 400)">
<title>snakemake_dag</title>
<polygon fill="white" stroke="none" points="-4,4 -4,-400 1057.95,-400 1057.95,4 -4,4"/>
<!-- 0 -->
<g id="node1" class="node">
<title>0</title>
<path fill="none" stroke="#56d882" stroke-width="2" d="M560,-36C560,-36 530,-36 530,-36 524,-36 518,-30 518,-24 518,-24 518,-12 518,-12 518,-6 524,0 530,0 530,0 560,0 560,0 566,0 572,-6 572,-12 572,-12 572,-24 572,-24 572,-30 566,-36 560,-36"/>
<text text-anchor="middle" x="545" y="-15.5" font-family="sans" font-size="10.00">all</text>
</g>
<!-- 1 -->
<g id="node2" class="node">
<title>1</title>
<path fill="none" stroke="#d85656" stroke-width="2" d="M175,-108C175,-108 77,-108 77,-108 71,-108 65,-102 65,-96 65,-96 65,-84 65,-84 65,-78 71,-72 77,-72 77,-72 175,-72 175,-72 181,-72 187,-78 187,-84 187,-84 187,-96 187,-96 187,-102 181,-108 175,-108"/>
<text text-anchor="middle" x="126" y="-87.5" font-family="sans" font-size="10.00">deploy_to_github_pages</text>
</g>
<!-- 1&#45;&gt;0 -->
<g id="edge2" class="edge">
<title>1&#45;&gt;0</title>
<path fill="none" stroke="grey" stroke-width="2" d="M187.32,-74.73C191.94,-73.77 196.54,-72.85 201,-72 311.83,-50.93 443.97,-32.4 507.39,-23.92"/>
<polygon fill="grey" stroke="grey" stroke-width="2" points="508.24,-27.33 517.69,-22.55 507.31,-20.4 508.24,-27.33"/>
</g>
<!-- 2 -->
<g id="node3" class="node">
<title>2</title>
<path fill="none" stroke="#56a9d8" stroke-width="2" d="M168,-180C168,-180 98,-180 98,-180 92,-180 86,-174 86,-168 86,-168 86,-156 86,-156 86,-150 92,-144 98,-144 98,-144 168,-144 168,-144 174,-144 180,-150 180,-156 180,-156 180,-168 180,-168 180,-174 174,-180 168,-180"/>
<text text-anchor="middle" x="133" y="-159.5" font-family="sans" font-size="10.00">get_dot_rulegraph</text>
</g>
<!-- 2&#45;&gt;1 -->
<g id="edge12" class="edge">
<title>2&#45;&gt;1</title>
<path fill="none" stroke="grey" stroke-width="2" d="M131.27,-143.7C130.5,-135.98 129.57,-126.71 128.71,-118.11"/>
<polygon fill="grey" stroke="grey" stroke-width="2" points="132.19,-117.71 127.71,-108.1 125.22,-118.4 132.19,-117.71"/>
</g>
<!-- 3 -->
<g id="node4" class="node">
<title>3</title>
<path fill="none" stroke="#80d856" stroke-width="2" d="M56,-180C56,-180 12,-180 12,-180 6,-180 0,-174 0,-168 0,-168 0,-156 0,-156 0,-150 6,-144 12,-144 12,-144 56,-144 56,-144 62,-144 68,-150 68,-156 68,-156 68,-168 68,-168 68,-174 62,-180 56,-180"/>
<text text-anchor="middle" x="34" y="-159.5" font-family="sans" font-size="10.00">project_tree</text>
</g>
<!-- 3&#45;&gt;1 -->
<g id="edge11" class="edge">
<title>3&#45;&gt;1</title>
<path fill="none" stroke="grey" stroke-width="2" d="M56.74,-143.7C68.44,-134.8 82.86,-123.82 95.51,-114.2"/>
<polygon fill="grey" stroke="grey" stroke-width="2" points="97.68,-116.94 103.52,-108.1 93.44,-111.37 97.68,-116.94"/>
</g>
<!-- 4 -->
<g id="node5" class="node">
<title>4</title>
<path fill="none" stroke="#56d86b" stroke-width="2" d="M278.5,-252C278.5,-252 233.5,-252 233.5,-252 227.5,-252 221.5,-246 221.5,-240 221.5,-240 221.5,-228 221.5,-228 221.5,-222 227.5,-216 233.5,-216 233.5,-216 278.5,-216 278.5,-216 284.5,-216 290.5,-222 290.5,-228 290.5,-228 290.5,-240 290.5,-240 290.5,-246 284.5,-252 278.5,-252"/>
<text text-anchor="middle" x="256" y="-231.5" font-family="sans" font-size="10.00">multiqc_raw</text>
</g>
<!-- 4&#45;&gt;0 -->
<g id="edge10" class="edge">
<title>4&#45;&gt;0</title>
<path fill="none" stroke="grey" stroke-width="2" d="M246.81,-215.86C230.77,-183.33 202.65,-112.27 239,-72 274.3,-32.9 433.97,-22.61 507.6,-19.93"/>
<polygon fill="grey" stroke="grey" stroke-width="2" points="507.94,-23.42 517.81,-19.59 507.7,-16.43 507.94,-23.42"/>
</g>
<!-- 5 -->
<g id="node6" class="node">
<title>5</title>
<path fill="none" stroke="#56d8c1" stroke-width="2" d="M339.5,-324C339.5,-324 298.5,-324 298.5,-324 292.5,-324 286.5,-318 286.5,-312 286.5,-312 286.5,-300 286.5,-300 286.5,-294 292.5,-288 298.5,-288 298.5,-288 339.5,-288 339.5,-288 345.5,-288 351.5,-294 351.5,-300 351.5,-300 351.5,-312 351.5,-312 351.5,-318 345.5,-324 339.5,-324"/>
<text text-anchor="middle" x="319" y="-303.5" font-family="sans" font-size="10.00">fastqc_raw</text>
</g>
<!-- 5&#45;&gt;4 -->
<g id="edge13" class="edge">
<title>5&#45;&gt;4</title>
<path fill="none" stroke="grey" stroke-width="2" d="M303.43,-287.7C295.8,-279.22 286.48,-268.86 278.12,-259.58"/>
<polygon fill="grey" stroke="grey" stroke-width="2" points="280.69,-257.2 271.39,-252.1 275.48,-261.88 280.69,-257.2"/>
</g>
<!-- 6 -->
<g id="node7" class="node">
<title>6</title>
<path fill="none" stroke="#5682d8" stroke-width="2" d="M468.5,-396C468.5,-396 403.5,-396 403.5,-396 397.5,-396 391.5,-390 391.5,-384 391.5,-384 391.5,-372 391.5,-372 391.5,-366 397.5,-360 403.5,-360 403.5,-360 468.5,-360 468.5,-360 474.5,-360 480.5,-366 480.5,-372 480.5,-372 480.5,-384 480.5,-384 480.5,-390 474.5,-396 468.5,-396"/>
<text text-anchor="middle" x="436" y="-375.5" font-family="sans" font-size="10.00">import_rawreads</text>
</g>
<!-- 6&#45;&gt;5 -->
<g id="edge14" class="edge">
<title>6&#45;&gt;5</title>
<path fill="none" stroke="grey" stroke-width="2" d="M407.38,-359.88C392.08,-350.72 373.06,-339.34 356.58,-329.48"/>
<polygon fill="grey" stroke="grey" stroke-width="2" points="358.11,-326.32 347.73,-324.19 354.52,-332.33 358.11,-326.32"/>
</g>
<!-- 10 -->
<g id="node11" class="node">
<title>10</title>
<path fill="none" stroke="#c6d856" stroke-width="2" d="M471,-324C471,-324 401,-324 401,-324 395,-324 389,-318 389,-312 389,-312 389,-300 389,-300 389,-294 395,-288 401,-288 401,-288 471,-288 471,-288 477,-288 483,-294 483,-300 483,-300 483,-312 483,-312 483,-318 477,-324 471,-324"/>
<text text-anchor="middle" x="436" y="-303.5" font-family="sans" font-size="10.00">bbduk_trim_reads</text>
</g>
<!-- 6&#45;&gt;10 -->
<g id="edge18" class="edge">
<title>6&#45;&gt;10</title>
<path fill="none" stroke="grey" stroke-width="2" d="M436,-359.7C436,-351.98 436,-342.71 436,-334.11"/>
<polygon fill="grey" stroke="grey" stroke-width="2" points="439.5,-334.1 436,-324.1 432.5,-334.1 439.5,-334.1"/>
</g>
<!-- 14 -->
<g id="node15" class="node">
<title>14</title>
<path fill="none" stroke="#59d856" stroke-width="2" d="M713.5,-252C713.5,-252 646.5,-252 646.5,-252 640.5,-252 634.5,-246 634.5,-240 634.5,-240 634.5,-228 634.5,-228 634.5,-222 640.5,-216 646.5,-216 646.5,-216 713.5,-216 713.5,-216 719.5,-216 725.5,-222 725.5,-228 725.5,-228 725.5,-240 725.5,-240 725.5,-246 719.5,-252 713.5,-252"/>
<text text-anchor="middle" x="680" y="-231.5" font-family="sans" font-size="10.00">seqkit_stats_raw</text>
</g>
<!-- 6&#45;&gt;14 -->
<g id="edge24" class="edge">
<title>6&#45;&gt;14</title>
<path fill="none" stroke="grey" stroke-width="2" d="M465.43,-359.87C509.58,-334.18 592.97,-285.65 641.77,-257.25"/>
<polygon fill="grey" stroke="grey" stroke-width="2" points="643.58,-260.24 650.46,-252.19 640.06,-254.19 643.58,-260.24"/>
</g>
<!-- 7 -->
<g id="node8" class="node">
<title>7</title>
<path fill="none" stroke="#d8ac56" stroke-width="2" d="M325.5,-108C325.5,-108 260.5,-108 260.5,-108 254.5,-108 248.5,-102 248.5,-96 248.5,-96 248.5,-84 248.5,-84 248.5,-78 254.5,-72 260.5,-72 260.5,-72 325.5,-72 325.5,-72 331.5,-72 337.5,-78 337.5,-84 337.5,-84 337.5,-96 337.5,-96 337.5,-102 331.5,-108 325.5,-108"/>
<text text-anchor="middle" x="293" y="-87.5" font-family="sans" font-size="10.00">multiqc_trimmed</text>
</g>
<!-- 7&#45;&gt;0 -->
<g id="edge9" class="edge">
<title>7&#45;&gt;0</title>
<path fill="none" stroke="grey" stroke-width="2" d="M337.59,-75.33C341.45,-74.19 345.29,-73.06 349,-72 404.33,-56.13 468.81,-38.94 508.27,-28.57"/>
<polygon fill="grey" stroke="grey" stroke-width="2" points="509.19,-31.95 517.98,-26.03 507.42,-25.18 509.19,-31.95"/>
</g>
<!-- 8 -->
<g id="node9" class="node">
<title>8</title>
<path fill="none" stroke="#d8c356" stroke-width="2" d="M315,-180C315,-180 255,-180 255,-180 249,-180 243,-174 243,-168 243,-168 243,-156 243,-156 243,-150 249,-144 255,-144 255,-144 315,-144 315,-144 321,-144 327,-150 327,-156 327,-156 327,-168 327,-168 327,-174 321,-180 315,-180"/>
<text text-anchor="middle" x="285" y="-159.5" font-family="sans" font-size="10.00">fastqc_trimmed</text>
</g>
<!-- 8&#45;&gt;7 -->
<g id="edge15" class="edge">
<title>8&#45;&gt;7</title>
<path fill="none" stroke="grey" stroke-width="2" d="M286.98,-143.7C287.86,-135.98 288.92,-126.71 289.9,-118.11"/>
<polygon fill="grey" stroke="grey" stroke-width="2" points="293.39,-118.44 291.05,-108.1 286.43,-117.64 293.39,-118.44"/>
</g>
<!-- 9 -->
<g id="node10" class="node">
<title>9</title>
<path fill="none" stroke="#566bd8" stroke-width="2" d="M426.5,-252C426.5,-252 359.5,-252 359.5,-252 353.5,-252 347.5,-246 347.5,-240 347.5,-240 347.5,-228 347.5,-228 347.5,-222 353.5,-216 359.5,-216 359.5,-216 426.5,-216 426.5,-216 432.5,-216 438.5,-222 438.5,-228 438.5,-228 438.5,-240 438.5,-240 438.5,-246 432.5,-252 426.5,-252"/>
<text text-anchor="middle" x="393" y="-231.5" font-family="sans" font-size="10.00">bbduk_decontam</text>
</g>
<!-- 9&#45;&gt;8 -->
<g id="edge16" class="edge">
<title>9&#45;&gt;8</title>
<path fill="none" stroke="grey" stroke-width="2" d="M366.58,-215.88C352.59,-206.81 335.22,-195.55 320.11,-185.76"/>
<polygon fill="grey" stroke="grey" stroke-width="2" points="321.82,-182.69 311.52,-180.19 318.01,-188.57 321.82,-182.69"/>
</g>
<!-- 12 -->
<g id="node13" class="node">
<title>12</title>
<path fill="none" stroke="#56d8a9" stroke-width="2" d="M425,-180C425,-180 357,-180 357,-180 351,-180 345,-174 345,-168 345,-168 345,-156 345,-156 345,-150 351,-144 357,-144 357,-144 425,-144 425,-144 431,-144 437,-150 437,-156 437,-156 437,-168 437,-168 437,-174 431,-180 425,-180"/>
<text text-anchor="middle" x="391" y="-159.5" font-family="sans" font-size="10.00">fastqc_decontam</text>
</g>
<!-- 9&#45;&gt;12 -->
<g id="edge20" class="edge">
<title>9&#45;&gt;12</title>
<path fill="none" stroke="grey" stroke-width="2" d="M392.51,-215.7C392.29,-207.98 392.02,-198.71 391.77,-190.11"/>
<polygon fill="grey" stroke="grey" stroke-width="2" points="395.27,-190 391.49,-180.1 388.28,-190.2 395.27,-190"/>
</g>
<!-- 16 -->
<g id="node17" class="node">
<title>16</title>
<path fill="none" stroke="#d86e56" stroke-width="2" d="M561,-180C561,-180 467,-180 467,-180 461,-180 455,-174 455,-168 455,-168 455,-156 455,-156 455,-150 461,-144 467,-144 467,-144 561,-144 561,-144 567,-144 573,-150 573,-156 573,-156 573,-168 573,-168 573,-174 567,-180 561,-180"/>
<text text-anchor="middle" x="514" y="-159.5" font-family="sans" font-size="10.00">seqkit_stats_decontam</text>
</g>
<!-- 9&#45;&gt;16 -->
<g id="edge26" class="edge">
<title>9&#45;&gt;16</title>
<path fill="none" stroke="grey" stroke-width="2" d="M422.6,-215.88C438.57,-206.64 458.46,-195.13 475.61,-185.21"/>
<polygon fill="grey" stroke="grey" stroke-width="2" points="477.38,-188.23 484.29,-180.19 473.88,-182.17 477.38,-188.23"/>
</g>
<!-- 10&#45;&gt;9 -->
<g id="edge17" class="edge">
<title>10&#45;&gt;9</title>
<path fill="none" stroke="grey" stroke-width="2" d="M425.37,-287.7C420.37,-279.56 414.31,-269.69 408.79,-260.7"/>
<polygon fill="grey" stroke="grey" stroke-width="2" points="411.72,-258.79 403.51,-252.1 405.76,-262.46 411.72,-258.79"/>
</g>
<!-- 15 -->
<g id="node16" class="node">
<title>15</title>
<path fill="none" stroke="#97d856" stroke-width="2" d="M599,-252C599,-252 513,-252 513,-252 507,-252 501,-246 501,-240 501,-240 501,-228 501,-228 501,-222 507,-216 513,-216 513,-216 599,-216 599,-216 605,-216 611,-222 611,-228 611,-228 611,-240 611,-240 611,-246 605,-252 599,-252"/>
<text text-anchor="middle" x="556" y="-231.5" font-family="sans" font-size="10.00">seqkit_stats_trimmed</text>
</g>
<!-- 10&#45;&gt;15 -->
<g id="edge25" class="edge">
<title>10&#45;&gt;15</title>
<path fill="none" stroke="grey" stroke-width="2" d="M465.36,-287.88C481.05,-278.72 500.56,-267.34 517.45,-257.48"/>
<polygon fill="grey" stroke="grey" stroke-width="2" points="519.66,-260.25 526.53,-252.19 516.13,-254.21 519.66,-260.25"/>
</g>
<!-- 11 -->
<g id="node12" class="node">
<title>11</title>
<path fill="none" stroke="#56c1d8" stroke-width="2" d="M442,-108C442,-108 370,-108 370,-108 364,-108 358,-102 358,-96 358,-96 358,-84 358,-84 358,-78 364,-72 370,-72 370,-72 442,-72 442,-72 448,-72 454,-78 454,-84 454,-84 454,-96 454,-96 454,-102 448,-108 442,-108"/>
<text text-anchor="middle" x="406" y="-87.5" font-family="sans" font-size="10.00">multiqc_decontam</text>
</g>
<!-- 11&#45;&gt;0 -->
<g id="edge4" class="edge">
<title>11&#45;&gt;0</title>
<path fill="none" stroke="grey" stroke-width="2" d="M440,-71.88C460.87,-61.37 487.56,-47.92 508.82,-37.22"/>
<polygon fill="grey" stroke="grey" stroke-width="2" points="510.5,-40.29 517.86,-32.67 507.35,-34.04 510.5,-40.29"/>
</g>
<!-- 12&#45;&gt;11 -->
<g id="edge19" class="edge">
<title>12&#45;&gt;11</title>
<path fill="none" stroke="grey" stroke-width="2" d="M394.71,-143.7C396.36,-135.98 398.35,-126.71 400.19,-118.11"/>
<polygon fill="grey" stroke="grey" stroke-width="2" points="403.66,-118.62 402.33,-108.1 396.82,-117.15 403.66,-118.62"/>
</g>
<!-- 13 -->
<g id="node14" class="node">
<title>13</title>
<path fill="none" stroke="#d89556" stroke-width="2" d="M538.5,-108C538.5,-108 485.5,-108 485.5,-108 479.5,-108 473.5,-102 473.5,-96 473.5,-96 473.5,-84 473.5,-84 473.5,-78 479.5,-72 485.5,-72 485.5,-72 538.5,-72 538.5,-72 544.5,-72 550.5,-78 550.5,-84 550.5,-84 550.5,-96 550.5,-96 550.5,-102 544.5,-108 538.5,-108"/>
<text text-anchor="middle" x="512" y="-87.5" font-family="sans" font-size="10.00">plot_read_hist</text>
</g>
<!-- 13&#45;&gt;0 -->
<g id="edge7" class="edge">
<title>13&#45;&gt;0</title>
<path fill="none" stroke="grey" stroke-width="2" d="M520.16,-71.7C523.91,-63.73 528.45,-54.1 532.62,-45.26"/>
<polygon fill="grey" stroke="grey" stroke-width="2" points="535.84,-46.64 536.94,-36.1 529.51,-43.66 535.84,-46.64"/>
</g>
<!-- 14&#45;&gt;13 -->
<g id="edge22" class="edge">
<title>14&#45;&gt;13</title>
<path fill="none" stroke="grey" stroke-width="2" d="M666.7,-215.96C651.4,-197.02 624.91,-166.18 598,-144 584.33,-132.73 568.05,-122.1 553.36,-113.36"/>
<polygon fill="grey" stroke="grey" stroke-width="2" points="554.85,-110.18 544.45,-108.18 551.33,-116.23 554.85,-110.18"/>
</g>
<!-- 17 -->
<g id="node18" class="node">
<title>17</title>
<path fill="none" stroke="#d6d856" stroke-width="2" d="M1015,-180C1015,-180 933,-180 933,-180 927,-180 921,-174 921,-168 921,-168 921,-156 921,-156 921,-150 927,-144 933,-144 933,-144 1015,-144 1015,-144 1021,-144 1027,-150 1027,-156 1027,-156 1027,-168 1027,-168 1027,-174 1021,-180 1015,-180"/>
<text text-anchor="middle" x="974" y="-159.5" font-family="sans" font-size="10.00">qiime2_manifest_file</text>
</g>
<!-- 14&#45;&gt;17 -->
<g id="edge27" class="edge">
<title>14&#45;&gt;17</title>
<path fill="none" stroke="grey" stroke-width="2" d="M725.61,-222.14C775.37,-210.29 855.33,-191.25 911.05,-177.99"/>
<polygon fill="grey" stroke="grey" stroke-width="2" points="911.89,-181.39 920.81,-175.67 910.27,-174.58 911.89,-181.39"/>
</g>
<!-- 20 -->
<g id="node21" class="node">
<title>20</title>
<path fill="none" stroke="#afd856" stroke-width="2" d="M762.5,-180C762.5,-180 679.5,-180 679.5,-180 673.5,-180 667.5,-174 667.5,-168 667.5,-168 667.5,-156 667.5,-156 667.5,-150 673.5,-144 679.5,-144 679.5,-144 762.5,-144 762.5,-144 768.5,-144 774.5,-150 774.5,-156 774.5,-156 774.5,-168 774.5,-168 774.5,-174 768.5,-180 762.5,-180"/>
<text text-anchor="middle" x="721" y="-159.5" font-family="sans" font-size="10.00">mothur_mapping_file</text>
</g>
<!-- 14&#45;&gt;20 -->
<g id="edge30" class="edge">
<title>14&#45;&gt;20</title>
<path fill="none" stroke="grey" stroke-width="2" d="M690.13,-215.7C694.85,-207.64 700.56,-197.89 705.78,-188.98"/>
<polygon fill="grey" stroke="grey" stroke-width="2" points="708.95,-190.5 710.98,-180.1 702.91,-186.96 708.95,-190.5"/>
</g>
<!-- 15&#45;&gt;13 -->
<g id="edge21" class="edge">
<title>15&#45;&gt;13</title>
<path fill="none" stroke="grey" stroke-width="2" d="M568.21,-215.94C579.78,-197.52 593.75,-167.64 582,-144 576,-131.93 565.79,-121.87 554.99,-113.88"/>
<polygon fill="grey" stroke="grey" stroke-width="2" points="556.91,-110.95 546.68,-108.17 552.94,-116.71 556.91,-110.95"/>
</g>
<!-- 16&#45;&gt;13 -->
<g id="edge23" class="edge">
<title>16&#45;&gt;13</title>
<path fill="none" stroke="grey" stroke-width="2" d="M513.51,-143.7C513.29,-135.98 513.02,-126.71 512.77,-118.11"/>
<polygon fill="grey" stroke="grey" stroke-width="2" points="516.27,-118 512.49,-108.1 509.28,-118.2 516.27,-118"/>
</g>
<!-- 17&#45;&gt;0 -->
<g id="edge1" class="edge">
<title>17&#45;&gt;0</title>
<path fill="none" stroke="grey" stroke-width="2" d="M1010.51,-143.92C1024.6,-135.29 1039.18,-123.35 1047,-108 1054.27,-93.75 1057.7,-83.89 1047,-72 1015.98,-37.53 693.05,-23.83 582.15,-20.12"/>
<polygon fill="grey" stroke="grey" stroke-width="2" points="582.21,-16.62 572.1,-19.79 581.98,-23.61 582.21,-16.62"/>
</g>
<!-- 18 -->
<g id="node19" class="node">
<title>18</title>
<path fill="none" stroke="#68d856" stroke-width="2" d="M1026,-108C1026,-108 922,-108 922,-108 916,-108 910,-102 910,-96 910,-96 910,-84 910,-84 910,-78 916,-72 922,-72 922,-72 1026,-72 1026,-72 1032,-72 1038,-78 1038,-84 1038,-84 1038,-96 1038,-96 1038,-102 1032,-108 1026,-108"/>
<text text-anchor="middle" x="974" y="-87.5" font-family="sans" font-size="10.00">qiime2_sample_metadata</text>
</g>
<!-- 17&#45;&gt;18 -->
<g id="edge28" class="edge">
<title>17&#45;&gt;18</title>
<path fill="none" stroke="grey" stroke-width="2" d="M974,-143.7C974,-135.98 974,-126.71 974,-118.11"/>
<polygon fill="grey" stroke="grey" stroke-width="2" points="977.5,-118.1 974,-108.1 970.5,-118.1 977.5,-118.1"/>
</g>
<!-- 18&#45;&gt;0 -->
<g id="edge8" class="edge">
<title>18&#45;&gt;0</title>
<path fill="none" stroke="grey" stroke-width="2" d="M909.97,-73.78C906.94,-73.16 903.94,-72.56 901,-72 785.58,-50.01 647.65,-31.73 582.55,-23.57"/>
<polygon fill="grey" stroke="grey" stroke-width="2" points="582.73,-20.07 572.37,-22.31 581.86,-27.01 582.73,-20.07"/>
</g>
<!-- 19 -->
<g id="node20" class="node">
<title>19</title>
<path fill="none" stroke="#569ad8" stroke-width="2" d="M869.5,-180C869.5,-180 804.5,-180 804.5,-180 798.5,-180 792.5,-174 792.5,-168 792.5,-168 792.5,-156 792.5,-156 792.5,-150 798.5,-144 804.5,-144 804.5,-144 869.5,-144 869.5,-144 875.5,-144 881.5,-150 881.5,-156 881.5,-156 881.5,-168 881.5,-168 881.5,-174 875.5,-180 869.5,-180"/>
<text text-anchor="middle" x="837" y="-159.5" font-family="sans" font-size="10.00">import_metadata</text>
</g>
<!-- 19&#45;&gt;18 -->
<g id="edge29" class="edge">
<title>19&#45;&gt;18</title>
<path fill="none" stroke="grey" stroke-width="2" d="M870.51,-143.88C888.84,-134.51 911.74,-122.81 931.33,-112.8"/>
<polygon fill="grey" stroke="grey" stroke-width="2" points="933.04,-115.86 940.36,-108.19 929.86,-109.62 933.04,-115.86"/>
</g>
<!-- 21 -->
<g id="node22" class="node">
<title>21</title>
<path fill="none" stroke="#d88556" stroke-width="2" d="M879.5,-108C879.5,-108 774.5,-108 774.5,-108 768.5,-108 762.5,-102 762.5,-96 762.5,-96 762.5,-84 762.5,-84 762.5,-78 768.5,-72 774.5,-72 774.5,-72 879.5,-72 879.5,-72 885.5,-72 891.5,-78 891.5,-84 891.5,-84 891.5,-96 891.5,-96 891.5,-102 885.5,-108 879.5,-108"/>
<text text-anchor="middle" x="827" y="-87.5" font-family="sans" font-size="10.00">mothur_sample_metadata</text>
</g>
<!-- 19&#45;&gt;21 -->
<g id="edge31" class="edge">
<title>19&#45;&gt;21</title>
<path fill="none" stroke="grey" stroke-width="2" d="M834.53,-143.7C833.43,-135.98 832.1,-126.71 830.87,-118.11"/>
<polygon fill="grey" stroke="grey" stroke-width="2" points="834.32,-117.51 829.44,-108.1 827.39,-118.5 834.32,-117.51"/>
</g>
<!-- 22 -->
<g id="node23" class="node">
<title>22</title>
<path fill="none" stroke="#56d89a" stroke-width="2" d="M732.5,-108C732.5,-108 619.5,-108 619.5,-108 613.5,-108 607.5,-102 607.5,-96 607.5,-96 607.5,-84 607.5,-84 607.5,-78 613.5,-72 619.5,-72 619.5,-72 732.5,-72 732.5,-72 738.5,-72 744.5,-78 744.5,-84 744.5,-84 744.5,-96 744.5,-96 744.5,-102 738.5,-108 732.5,-108"/>
<text text-anchor="middle" x="676" y="-87.5" font-family="sans" font-size="10.00">update_samples_units_files</text>
</g>
<!-- 19&#45;&gt;22 -->
<g id="edge33" class="edge">
<title>19&#45;&gt;22</title>
<path fill="none" stroke="grey" stroke-width="2" d="M797.61,-143.88C775.61,-134.31 747.99,-122.3 724.64,-112.15"/>
<polygon fill="grey" stroke="grey" stroke-width="2" points="725.82,-108.85 715.26,-108.07 723.03,-115.27 725.82,-108.85"/>
</g>
<!-- 20&#45;&gt;0 -->
<g id="edge3" class="edge">
<title>20&#45;&gt;0</title>
<path fill="none" stroke="grey" stroke-width="2" d="M667.42,-145.81C644.5,-137.39 618.57,-125.08 599,-108 579.43,-90.92 564.82,-64.97 555.76,-45.49"/>
<polygon fill="grey" stroke="grey" stroke-width="2" points="558.91,-43.96 551.65,-36.24 552.51,-46.8 558.91,-43.96"/>
</g>
<!-- 20&#45;&gt;21 -->
<g id="edge32" class="edge">
<title>20&#45;&gt;21</title>
<path fill="none" stroke="grey" stroke-width="2" d="M746.93,-143.88C760.66,-134.81 777.71,-123.55 792.54,-113.76"/>
<polygon fill="grey" stroke="grey" stroke-width="2" points="794.55,-116.62 800.97,-108.19 790.7,-110.78 794.55,-116.62"/>
</g>
<!-- 20&#45;&gt;22 -->
<g id="edge34" class="edge">
<title>20&#45;&gt;22</title>
<path fill="none" stroke="grey" stroke-width="2" d="M709.88,-143.7C704.64,-135.56 698.3,-125.69 692.52,-116.7"/>
<polygon fill="grey" stroke="grey" stroke-width="2" points="695.35,-114.62 687,-108.1 689.46,-118.41 695.35,-114.62"/>
</g>
<!-- 21&#45;&gt;0 -->
<g id="edge5" class="edge">
<title>21&#45;&gt;0</title>
<path fill="none" stroke="grey" stroke-width="2" d="M762.3,-72.94C706.52,-59.09 627.93,-39.59 582.14,-28.22"/>
<polygon fill="grey" stroke="grey" stroke-width="2" points="582.89,-24.8 572.34,-25.79 581.2,-31.59 582.89,-24.8"/>
</g>
<!-- 22&#45;&gt;0 -->
<g id="edge6" class="edge">
<title>22&#45;&gt;0</title>
<path fill="none" stroke="grey" stroke-width="2" d="M643.95,-71.88C624.99,-61.74 600.91,-48.88 581.26,-38.37"/>
<polygon fill="grey" stroke="grey" stroke-width="2" points="582.76,-35.21 572.29,-33.58 579.46,-41.38 582.76,-35.21"/>
</g>
</g>
</svg>
