<?xml version="1.0" encoding="UTF-8" standalone="no"?>
<!DOCTYPE svg PUBLIC "-//W3C//DTD SVG 1.1//EN"
 "http://www.w3.org/Graphics/SVG/1.1/DTD/svg11.dtd">
<!-- Generated by graphviz version 9.0.0 (0)
 -->
<!-- Title: snakemake_dag Pages: 1 -->
<svg width="534pt" height="476pt"
 viewBox="0.00 0.00 534.38 476.00" xmlns="http://www.w3.org/2000/svg" xmlns:xlink="http://www.w3.org/1999/xlink">
<g id="graph0" class="graph" transform="scale(1 1) rotate(0) translate(4 472)">
<title>snakemake_dag</title>
<polygon fill="white" stroke="none" points="-4,4 -4,-472 530.38,-472 530.38,4 -4,4"/>
<!-- 0 -->
<g id="node1" class="node">
<title>0</title>
<path fill="none" stroke="#566bd8" stroke-width="2" d="M289.38,-36C289.38,-36 223.88,-36 223.88,-36 217.88,-36 211.88,-30 211.88,-24 211.88,-24 211.88,-12 211.88,-12 211.88,-6 217.88,0 223.88,0 223.88,0 289.38,0 289.38,0 295.38,0 301.38,-6 301.38,-12 301.38,-12 301.38,-24 301.38,-24 301.38,-30 295.38,-36 289.38,-36"/>
<text text-anchor="middle" x="256.62" y="-14.12" font-family="sans" font-size="10.00">FINAL_TARGET</text>
</g>
<!-- 1 -->
<g id="node2" class="node">
<title>1</title>
<path fill="none" stroke="#56d8d8" stroke-width="2" d="M289.75,-108C289.75,-108 223.5,-108 223.5,-108 217.5,-108 211.5,-102 211.5,-96 211.5,-96 211.5,-84 211.5,-84 211.5,-78 217.5,-72 223.5,-72 223.5,-72 289.75,-72 289.75,-72 295.75,-72 301.75,-78 301.75,-84 301.75,-84 301.75,-96 301.75,-96 301.75,-102 295.75,-108 289.75,-108"/>
<text text-anchor="middle" x="256.62" y="-86.12" font-family="sans" font-size="10.00">render_bs4_book</text>
</g>
<!-- 1&#45;&gt;0 -->
<g id="edge1" class="edge">
<title>1&#45;&gt;0</title>
<path fill="none" stroke="grey" stroke-width="2" d="M256.62,-71.34C256.62,-64.75 256.62,-57.08 256.62,-49.67"/>
<polygon fill="grey" stroke="grey" stroke-width="2" points="260.13,-49.93 256.63,-39.93 253.13,-49.93 260.13,-49.93"/>
</g>
<!-- 2 -->
<g id="node3" class="node">
<title>2</title>
<path fill="none" stroke="#56d882" stroke-width="2" d="M63.25,-180C63.25,-180 12,-180 12,-180 6,-180 0,-174 0,-168 0,-168 0,-156 0,-156 0,-150 6,-144 12,-144 12,-144 63.25,-144 63.25,-144 69.25,-144 75.25,-150 75.25,-156 75.25,-156 75.25,-168 75.25,-168 75.25,-174 69.25,-180 63.25,-180"/>
<text text-anchor="middle" x="37.62" y="-158.12" font-family="sans" font-size="10.00">generate_tree</text>
</g>
<!-- 2&#45;&gt;1 -->
<g id="edge2" class="edge">
<title>2&#45;&gt;1</title>
<path fill="none" stroke="grey" stroke-width="2" d="M76.05,-146.93C78.94,-145.92 81.83,-144.94 84.62,-144 122.33,-131.38 165.04,-118.21 198.48,-108.16"/>
<polygon fill="grey" stroke="grey" stroke-width="2" points="199.33,-111.56 207.9,-105.33 197.32,-104.85 199.33,-111.56"/>
</g>
<!-- 3 -->
<g id="node4" class="node">
<title>3</title>
<path fill="none" stroke="#d88556" stroke-width="2" d="M177.75,-180C177.75,-180 105.5,-180 105.5,-180 99.5,-180 93.5,-174 93.5,-168 93.5,-168 93.5,-156 93.5,-156 93.5,-150 99.5,-144 105.5,-144 105.5,-144 177.75,-144 177.75,-144 183.75,-144 189.75,-150 189.75,-156 189.75,-156 189.75,-168 189.75,-168 189.75,-174 183.75,-180 177.75,-180"/>
<text text-anchor="middle" x="141.62" y="-158.12" font-family="sans" font-size="10.00">snakemake_report</text>
</g>
<!-- 3&#45;&gt;1 -->
<g id="edge3" class="edge">
<title>3&#45;&gt;1</title>
<path fill="none" stroke="grey" stroke-width="2" d="M170.94,-143.15C184.73,-134.76 201.39,-124.62 216.34,-115.52"/>
<polygon fill="grey" stroke="grey" stroke-width="2" points="218.05,-118.58 224.78,-110.39 214.41,-112.6 218.05,-118.58"/>
</g>
<!-- 4 -->
<g id="node5" class="node">
<title>4</title>
<path fill="none" stroke="#56d89a" stroke-width="2" d="M293.88,-180C293.88,-180 219.38,-180 219.38,-180 213.38,-180 207.38,-174 207.38,-168 207.38,-168 207.38,-156 207.38,-156 207.38,-150 213.38,-144 219.38,-144 219.38,-144 293.88,-144 293.88,-144 299.88,-144 305.88,-150 305.88,-156 305.88,-156 305.88,-168 305.88,-168 305.88,-174 299.88,-180 293.88,-180"/>
<text text-anchor="middle" x="256.62" y="-158.12" font-family="sans" font-size="10.00">generate_rulegraph</text>
</g>
<!-- 4&#45;&gt;1 -->
<g id="edge4" class="edge">
<title>4&#45;&gt;1</title>
<path fill="none" stroke="grey" stroke-width="2" d="M256.62,-143.34C256.62,-136.75 256.62,-129.08 256.62,-121.67"/>
<polygon fill="grey" stroke="grey" stroke-width="2" points="260.13,-121.93 256.63,-111.93 253.13,-121.93 260.13,-121.93"/>
</g>
<!-- 5 -->
<g id="node6" class="node">
<title>5</title>
<path fill="none" stroke="#56d8a9" stroke-width="2" d="M401,-180C401,-180 336.25,-180 336.25,-180 330.25,-180 324.25,-174 324.25,-168 324.25,-168 324.25,-156 324.25,-156 324.25,-150 330.25,-144 336.25,-144 336.25,-144 401,-144 401,-144 407,-144 413,-150 413,-156 413,-156 413,-168 413,-168 413,-174 407,-180 401,-180"/>
<text text-anchor="middle" x="368.62" y="-158.12" font-family="sans" font-size="10.00">import_metadata</text>
</g>
<!-- 5&#45;&gt;1 -->
<g id="edge5" class="edge">
<title>5&#45;&gt;1</title>
<path fill="none" stroke="grey" stroke-width="2" d="M340.07,-143.15C326.65,-134.76 310.42,-124.62 295.86,-115.52"/>
<polygon fill="grey" stroke="grey" stroke-width="2" points="298.03,-112.75 287.69,-110.42 294.32,-118.68 298.03,-112.75"/>
</g>
<!-- 6 -->
<g id="node7" class="node">
<title>6</title>
<path fill="none" stroke="#59d856" stroke-width="2" d="M514.38,-180C514.38,-180 442.88,-180 442.88,-180 436.88,-180 430.88,-174 430.88,-168 430.88,-168 430.88,-156 430.88,-156 430.88,-150 436.88,-144 442.88,-144 442.88,-144 514.38,-144 514.38,-144 520.38,-144 526.38,-150 526.38,-156 526.38,-156 526.38,-168 526.38,-168 526.38,-174 520.38,-180 514.38,-180"/>
<text text-anchor="middle" x="478.62" y="-158.12" font-family="sans" font-size="10.00">multiqc_decontam</text>
</g>
<!-- 6&#45;&gt;1 -->
<g id="edge6" class="edge">
<title>6&#45;&gt;1</title>
<path fill="none" stroke="grey" stroke-width="2" d="M429.91,-145.64C396,-134.95 350.62,-120.64 314.81,-109.35"/>
<polygon fill="grey" stroke="grey" stroke-width="2" points="316.05,-106.07 305.46,-106.4 313.95,-112.74 316.05,-106.07"/>
</g>
<!-- 7 -->
<g id="node8" class="node">
<title>7</title>
<path fill="none" stroke="#d8c356" stroke-width="2" d="M512.12,-252C512.12,-252 445.12,-252 445.12,-252 439.12,-252 433.12,-246 433.12,-240 433.12,-240 433.12,-228 433.12,-228 433.12,-222 439.12,-216 445.12,-216 445.12,-216 512.12,-216 512.12,-216 518.12,-216 524.12,-222 524.12,-228 524.12,-228 524.12,-240 524.12,-240 524.12,-246 518.12,-252 512.12,-252"/>
<text text-anchor="middle" x="478.62" y="-230.12" font-family="sans" font-size="10.00">fastqc_decontam</text>
</g>
<!-- 7&#45;&gt;6 -->
<g id="edge7" class="edge">
<title>7&#45;&gt;6</title>
<path fill="none" stroke="grey" stroke-width="2" d="M478.62,-215.34C478.62,-208.75 478.62,-201.08 478.62,-193.67"/>
<polygon fill="grey" stroke="grey" stroke-width="2" points="482.13,-193.93 478.63,-183.93 475.13,-193.93 482.13,-193.93"/>
</g>
<!-- 8 -->
<g id="node9" class="node">
<title>8</title>
<path fill="none" stroke="#56d8c1" stroke-width="2" d="M511.75,-324C511.75,-324 445.5,-324 445.5,-324 439.5,-324 433.5,-318 433.5,-312 433.5,-312 433.5,-300 433.5,-300 433.5,-294 439.5,-288 445.5,-288 445.5,-288 511.75,-288 511.75,-288 517.75,-288 523.75,-294 523.75,-300 523.75,-300 523.75,-312 523.75,-312 523.75,-318 517.75,-324 511.75,-324"/>
<text text-anchor="middle" x="478.62" y="-302.12" font-family="sans" font-size="10.00">bbduk_decontam</text>
</g>
<!-- 8&#45;&gt;7 -->
<g id="edge8" class="edge">
<title>8&#45;&gt;7</title>
<path fill="none" stroke="grey" stroke-width="2" d="M478.62,-287.34C478.62,-280.75 478.62,-273.08 478.62,-265.67"/>
<polygon fill="grey" stroke="grey" stroke-width="2" points="482.13,-265.93 478.63,-255.93 475.13,-265.93 482.13,-265.93"/>
</g>
<!-- 9 -->
<g id="node10" class="node">
<title>9</title>
<path fill="none" stroke="#5682d8" stroke-width="2" d="M513.25,-396C513.25,-396 444,-396 444,-396 438,-396 432,-390 432,-384 432,-384 432,-372 432,-372 432,-366 438,-360 444,-360 444,-360 513.25,-360 513.25,-360 519.25,-360 525.25,-366 525.25,-372 525.25,-372 525.25,-384 525.25,-384 525.25,-390 519.25,-396 513.25,-396"/>
<text text-anchor="middle" x="478.62" y="-374.12" font-family="sans" font-size="10.00">bbduk_trim_reads</text>
</g>
<!-- 9&#45;&gt;8 -->
<g id="edge9" class="edge">
<title>9&#45;&gt;8</title>
<path fill="none" stroke="grey" stroke-width="2" d="M478.62,-359.34C478.62,-352.75 478.62,-345.08 478.62,-337.67"/>
<polygon fill="grey" stroke="grey" stroke-width="2" points="482.13,-337.93 478.63,-327.93 475.13,-337.93 482.13,-337.93"/>
</g>
<!-- 10 -->
<g id="node11" class="node">
<title>10</title>
<path fill="none" stroke="#80d856" stroke-width="2" d="M510.62,-468C510.62,-468 446.62,-468 446.62,-468 440.62,-468 434.62,-462 434.62,-456 434.62,-456 434.62,-444 434.62,-444 434.62,-438 440.62,-432 446.62,-432 446.62,-432 510.62,-432 510.62,-432 516.62,-432 522.62,-438 522.62,-444 522.62,-444 522.62,-456 522.62,-456 522.62,-462 516.62,-468 510.62,-468"/>
<text text-anchor="middle" x="478.62" y="-446.12" font-family="sans" font-size="10.00">import_rawreads</text>
</g>
<!-- 10&#45;&gt;9 -->
<g id="edge10" class="edge">
<title>10&#45;&gt;9</title>
<path fill="none" stroke="grey" stroke-width="2" d="M478.62,-431.34C478.62,-424.75 478.62,-417.08 478.62,-409.67"/>
<polygon fill="grey" stroke="grey" stroke-width="2" points="482.13,-409.93 478.63,-399.93 475.13,-409.93 482.13,-409.93"/>
</g>
</g>
</svg>
