<?xml version="1.0" encoding="UTF-8" standalone="no"?>
<!DOCTYPE svg PUBLIC "-//W3C//DTD SVG 1.1//EN"
 "http://www.w3.org/Graphics/SVG/1.1/DTD/svg11.dtd">
<!-- Generated by graphviz version 9.0.0 (0)
 -->
<!-- Title: snakemake_dag Pages: 1 -->
<svg width="1017pt" height="476pt"
 viewBox="0.00 0.00 1016.99 476.00" xmlns="http://www.w3.org/2000/svg" xmlns:xlink="http://www.w3.org/1999/xlink">
<g id="graph0" class="graph" transform="scale(1 1) rotate(0) translate(4 472)">
<title>snakemake_dag</title>
<polygon fill="white" stroke="none" points="-4,4 -4,-472 1012.99,-472 1012.99,4 -4,4"/>
<!-- 0 -->
<g id="node1" class="node">
<title>0</title>
<path fill="none" stroke="#56d882" stroke-width="2" d="M733.71,-36C733.71,-36 668.21,-36 668.21,-36 662.21,-36 656.21,-30 656.21,-24 656.21,-24 656.21,-12 656.21,-12 656.21,-6 662.21,0 668.21,0 668.21,0 733.71,0 733.71,0 739.71,0 745.71,-6 745.71,-12 745.71,-12 745.71,-24 745.71,-24 745.71,-30 739.71,-36 733.71,-36"/>
<text text-anchor="middle" x="700.96" y="-14.12" font-family="sans" font-size="10.00">FINAL_TARGET</text>
</g>
<!-- 1 -->
<g id="node2" class="node">
<title>1</title>
<path fill="none" stroke="#56d8d8" stroke-width="2" d="M350.08,-108C350.08,-108 283.83,-108 283.83,-108 277.83,-108 271.83,-102 271.83,-96 271.83,-96 271.83,-84 271.83,-84 271.83,-78 277.83,-72 283.83,-72 283.83,-72 350.08,-72 350.08,-72 356.08,-72 362.08,-78 362.08,-84 362.08,-84 362.08,-96 362.08,-96 362.08,-102 356.08,-108 350.08,-108"/>
<text text-anchor="middle" x="316.96" y="-86.12" font-family="sans" font-size="10.00">render_bs4_book</text>
</g>
<!-- 1&#45;&gt;0 -->
<g id="edge3" class="edge">
<title>1&#45;&gt;0</title>
<path fill="none" stroke="grey" stroke-width="2" d="M362.9,-80.63C432.81,-67.88 565.86,-43.63 642.55,-29.65"/>
<polygon fill="grey" stroke="grey" stroke-width="2" points="643.08,-33.11 652.29,-27.87 641.82,-26.22 643.08,-33.11"/>
</g>
<!-- 2 -->
<g id="node3" class="node">
<title>2</title>
<path fill="none" stroke="#80d856" stroke-width="2" d="M84.58,-180C84.58,-180 33.33,-180 33.33,-180 27.33,-180 21.33,-174 21.33,-168 21.33,-168 21.33,-156 21.33,-156 21.33,-150 27.33,-144 33.33,-144 33.33,-144 84.58,-144 84.58,-144 90.58,-144 96.58,-150 96.58,-156 96.58,-156 96.58,-168 96.58,-168 96.58,-174 90.58,-180 84.58,-180"/>
<text text-anchor="middle" x="58.96" y="-158.12" font-family="sans" font-size="10.00">generate_tree</text>
</g>
<!-- 2&#45;&gt;1 -->
<g id="edge12" class="edge">
<title>2&#45;&gt;1</title>
<path fill="none" stroke="grey" stroke-width="2" d="M97.58,-146.68C100.41,-145.74 103.22,-144.84 105.96,-144 156.86,-128.44 215.66,-113.95 258.24,-104.07"/>
<polygon fill="grey" stroke="grey" stroke-width="2" points="258.99,-107.49 267.95,-101.83 257.42,-100.67 258.99,-107.49"/>
</g>
<!-- 3 -->
<g id="node4" class="node">
<title>3</title>
<path fill="none" stroke="#97d856" stroke-width="2" d="M199.08,-180C199.08,-180 126.83,-180 126.83,-180 120.83,-180 114.83,-174 114.83,-168 114.83,-168 114.83,-156 114.83,-156 114.83,-150 120.83,-144 126.83,-144 126.83,-144 199.08,-144 199.08,-144 205.08,-144 211.08,-150 211.08,-156 211.08,-156 211.08,-168 211.08,-168 211.08,-174 205.08,-180 199.08,-180"/>
<text text-anchor="middle" x="162.96" y="-158.12" font-family="sans" font-size="10.00">snakemake_report</text>
</g>
<!-- 3&#45;&gt;1 -->
<g id="edge7" class="edge">
<title>3&#45;&gt;1</title>
<path fill="none" stroke="grey" stroke-width="2" d="M202.22,-143.15C221.51,-134.38 245.01,-123.71 265.7,-114.3"/>
<polygon fill="grey" stroke="grey" stroke-width="2" points="267.09,-117.51 274.75,-110.19 264.2,-111.14 267.09,-117.51"/>
</g>
<!-- 4 -->
<g id="node5" class="node">
<title>4</title>
<path fill="none" stroke="#56c1d8" stroke-width="2" d="M315.21,-180C315.21,-180 240.71,-180 240.71,-180 234.71,-180 228.71,-174 228.71,-168 228.71,-168 228.71,-156 228.71,-156 228.71,-150 234.71,-144 240.71,-144 240.71,-144 315.21,-144 315.21,-144 321.21,-144 327.21,-150 327.21,-156 327.21,-156 327.21,-168 327.21,-168 327.21,-174 321.21,-180 315.21,-180"/>
<text text-anchor="middle" x="277.96" y="-158.12" font-family="sans" font-size="10.00">generate_rulegraph</text>
</g>
<!-- 4&#45;&gt;1 -->
<g id="edge11" class="edge">
<title>4&#45;&gt;1</title>
<path fill="none" stroke="grey" stroke-width="2" d="M287.8,-143.34C291.7,-136.34 296.28,-128.12 300.65,-120.28"/>
<polygon fill="grey" stroke="grey" stroke-width="2" points="303.7,-121.99 305.51,-111.55 297.59,-118.58 303.7,-121.99"/>
</g>
<!-- 5 -->
<g id="node6" class="node">
<title>5</title>
<path fill="none" stroke="#56d86b" stroke-width="2" d="M466.71,-180C466.71,-180 395.21,-180 395.21,-180 389.21,-180 383.21,-174 383.21,-168 383.21,-168 383.21,-156 383.21,-156 383.21,-150 389.21,-144 395.21,-144 395.21,-144 466.71,-144 466.71,-144 472.71,-144 478.71,-150 478.71,-156 478.71,-156 478.71,-168 478.71,-168 478.71,-174 472.71,-180 466.71,-180"/>
<text text-anchor="middle" x="430.96" y="-158.12" font-family="sans" font-size="10.00">multiqc_decontam</text>
</g>
<!-- 5&#45;&gt;1 -->
<g id="edge10" class="edge">
<title>5&#45;&gt;1</title>
<path fill="none" stroke="grey" stroke-width="2" d="M401.9,-143.15C388.23,-134.76 371.71,-124.62 356.89,-115.52"/>
<polygon fill="grey" stroke="grey" stroke-width="2" points="358.9,-112.65 348.55,-110.4 355.24,-118.61 358.9,-112.65"/>
</g>
<!-- 6 -->
<g id="node7" class="node">
<title>6</title>
<path fill="none" stroke="#d86e56" stroke-width="2" d="M420.46,-252C420.46,-252 353.46,-252 353.46,-252 347.46,-252 341.46,-246 341.46,-240 341.46,-240 341.46,-228 341.46,-228 341.46,-222 347.46,-216 353.46,-216 353.46,-216 420.46,-216 420.46,-216 426.46,-216 432.46,-222 432.46,-228 432.46,-228 432.46,-240 432.46,-240 432.46,-246 426.46,-252 420.46,-252"/>
<text text-anchor="middle" x="386.96" y="-230.12" font-family="sans" font-size="10.00">fastqc_decontam</text>
</g>
<!-- 6&#45;&gt;5 -->
<g id="edge14" class="edge">
<title>6&#45;&gt;5</title>
<path fill="none" stroke="grey" stroke-width="2" d="M398.06,-215.34C402.56,-208.18 407.87,-199.73 412.9,-191.73"/>
<polygon fill="grey" stroke="grey" stroke-width="2" points="415.74,-193.79 418.1,-183.46 409.81,-190.07 415.74,-193.79"/>
</g>
<!-- 7 -->
<g id="node8" class="node">
<title>7</title>
<path fill="none" stroke="#d8c356" stroke-width="2" d="M430.08,-324C430.08,-324 363.83,-324 363.83,-324 357.83,-324 351.83,-318 351.83,-312 351.83,-312 351.83,-300 351.83,-300 351.83,-294 357.83,-288 363.83,-288 363.83,-288 430.08,-288 430.08,-288 436.08,-288 442.08,-294 442.08,-300 442.08,-300 442.08,-312 442.08,-312 442.08,-318 436.08,-324 430.08,-324"/>
<text text-anchor="middle" x="396.96" y="-302.12" font-family="sans" font-size="10.00">bbduk_decontam</text>
</g>
<!-- 7&#45;&gt;6 -->
<g id="edge15" class="edge">
<title>7&#45;&gt;6</title>
<path fill="none" stroke="grey" stroke-width="2" d="M394.44,-287.34C393.5,-280.75 392.4,-273.08 391.34,-265.67"/>
<polygon fill="grey" stroke="grey" stroke-width="2" points="394.82,-265.3 389.94,-255.9 387.89,-266.29 394.82,-265.3"/>
</g>
<!-- 17 -->
<g id="node18" class="node">
<title>17</title>
<path fill="none" stroke="#d88556" stroke-width="2" d="M555.58,-252C555.58,-252 462.33,-252 462.33,-252 456.33,-252 450.33,-246 450.33,-240 450.33,-240 450.33,-228 450.33,-228 450.33,-222 456.33,-216 462.33,-216 462.33,-216 555.58,-216 555.58,-216 561.58,-216 567.58,-222 567.58,-228 567.58,-228 567.58,-240 567.58,-240 567.58,-246 561.58,-252 555.58,-252"/>
<text text-anchor="middle" x="508.96" y="-230.12" font-family="sans" font-size="10.00">seqkit_stats_decontam</text>
</g>
<!-- 7&#45;&gt;17 -->
<g id="edge27" class="edge">
<title>7&#45;&gt;17</title>
<path fill="none" stroke="grey" stroke-width="2" d="M425.51,-287.15C438.94,-278.76 455.16,-268.62 469.72,-259.52"/>
<polygon fill="grey" stroke="grey" stroke-width="2" points="471.27,-262.68 477.89,-254.42 467.56,-256.75 471.27,-262.68"/>
</g>
<!-- 8 -->
<g id="node9" class="node">
<title>8</title>
<path fill="none" stroke="#566bd8" stroke-width="2" d="M431.58,-396C431.58,-396 362.33,-396 362.33,-396 356.33,-396 350.33,-390 350.33,-384 350.33,-384 350.33,-372 350.33,-372 350.33,-366 356.33,-360 362.33,-360 362.33,-360 431.58,-360 431.58,-360 437.58,-360 443.58,-366 443.58,-372 443.58,-372 443.58,-384 443.58,-384 443.58,-390 437.58,-396 431.58,-396"/>
<text text-anchor="middle" x="396.96" y="-374.12" font-family="sans" font-size="10.00">bbduk_trim_reads</text>
</g>
<!-- 8&#45;&gt;7 -->
<g id="edge16" class="edge">
<title>8&#45;&gt;7</title>
<path fill="none" stroke="grey" stroke-width="2" d="M396.96,-359.34C396.96,-352.75 396.96,-345.08 396.96,-337.67"/>
<polygon fill="grey" stroke="grey" stroke-width="2" points="400.46,-337.93 396.96,-327.93 393.46,-337.93 400.46,-337.93"/>
</g>
<!-- 11 -->
<g id="node12" class="node">
<title>11</title>
<path fill="none" stroke="#5682d8" stroke-width="2" d="M320.71,-324C320.71,-324 261.21,-324 261.21,-324 255.21,-324 249.21,-318 249.21,-312 249.21,-312 249.21,-300 249.21,-300 249.21,-294 255.21,-288 261.21,-288 261.21,-288 320.71,-288 320.71,-288 326.71,-288 332.71,-294 332.71,-300 332.71,-300 332.71,-312 332.71,-312 332.71,-318 326.71,-324 320.71,-324"/>
<text text-anchor="middle" x="290.96" y="-302.12" font-family="sans" font-size="10.00">fastqc_trimmed</text>
</g>
<!-- 8&#45;&gt;11 -->
<g id="edge19" class="edge">
<title>8&#45;&gt;11</title>
<path fill="none" stroke="grey" stroke-width="2" d="M369.94,-359.15C357.35,-350.84 342.17,-340.82 328.5,-331.79"/>
<polygon fill="grey" stroke="grey" stroke-width="2" points="330.73,-329.07 320.46,-326.48 326.87,-334.91 330.73,-329.07"/>
</g>
<!-- 16 -->
<g id="node17" class="node">
<title>16</title>
<path fill="none" stroke="#56d8a9" stroke-width="2" d="M597.83,-324C597.83,-324 512.08,-324 512.08,-324 506.08,-324 500.08,-318 500.08,-312 500.08,-312 500.08,-300 500.08,-300 500.08,-294 506.08,-288 512.08,-288 512.08,-288 597.83,-288 597.83,-288 603.83,-288 609.83,-294 609.83,-300 609.83,-300 609.83,-312 609.83,-312 609.83,-318 603.83,-324 597.83,-324"/>
<text text-anchor="middle" x="554.96" y="-302.12" font-family="sans" font-size="10.00">seqkit_stats_trimmed</text>
</g>
<!-- 8&#45;&gt;16 -->
<g id="edge26" class="edge">
<title>8&#45;&gt;16</title>
<path fill="none" stroke="grey" stroke-width="2" d="M437.24,-359.15C457.13,-350.34 481.36,-339.61 502.66,-330.17"/>
<polygon fill="grey" stroke="grey" stroke-width="2" points="503.99,-333.41 511.71,-326.16 501.15,-327.01 503.99,-333.41"/>
</g>
<!-- 9 -->
<g id="node10" class="node">
<title>9</title>
<path fill="none" stroke="#569ad8" stroke-width="2" d="M428.96,-468C428.96,-468 364.96,-468 364.96,-468 358.96,-468 352.96,-462 352.96,-456 352.96,-456 352.96,-444 352.96,-444 352.96,-438 358.96,-432 364.96,-432 364.96,-432 428.96,-432 428.96,-432 434.96,-432 440.96,-438 440.96,-444 440.96,-444 440.96,-456 440.96,-456 440.96,-462 434.96,-468 428.96,-468"/>
<text text-anchor="middle" x="396.96" y="-446.12" font-family="sans" font-size="10.00">import_rawreads</text>
</g>
<!-- 9&#45;&gt;8 -->
<g id="edge17" class="edge">
<title>9&#45;&gt;8</title>
<path fill="none" stroke="grey" stroke-width="2" d="M396.96,-431.34C396.96,-424.75 396.96,-417.08 396.96,-409.67"/>
<polygon fill="grey" stroke="grey" stroke-width="2" points="400.46,-409.93 396.96,-399.93 393.46,-409.93 400.46,-409.93"/>
</g>
<!-- 13 -->
<g id="node14" class="node">
<title>13</title>
<path fill="none" stroke="#d8ac56" stroke-width="2" d="M268.96,-396C268.96,-396 228.96,-396 228.96,-396 222.96,-396 216.96,-390 216.96,-384 216.96,-384 216.96,-372 216.96,-372 216.96,-366 222.96,-360 228.96,-360 228.96,-360 268.96,-360 268.96,-360 274.96,-360 280.96,-366 280.96,-372 280.96,-372 280.96,-384 280.96,-384 280.96,-390 274.96,-396 268.96,-396"/>
<text text-anchor="middle" x="248.96" y="-374.12" font-family="sans" font-size="10.00">fastqc_raw</text>
</g>
<!-- 9&#45;&gt;13 -->
<g id="edge21" class="edge">
<title>9&#45;&gt;13</title>
<path fill="none" stroke="grey" stroke-width="2" d="M359.23,-431.15C339.09,-421.63 314.19,-409.85 293.15,-399.9"/>
<polygon fill="grey" stroke="grey" stroke-width="2" points="294.87,-396.84 284.33,-395.73 291.87,-403.17 294.87,-396.84"/>
</g>
<!-- 15 -->
<g id="node16" class="node">
<title>15</title>
<path fill="none" stroke="#d85656" stroke-width="2" d="M702.08,-252C702.08,-252 635.83,-252 635.83,-252 629.83,-252 623.83,-246 623.83,-240 623.83,-240 623.83,-228 623.83,-228 623.83,-222 629.83,-216 635.83,-216 635.83,-216 702.08,-216 702.08,-216 708.08,-216 714.08,-222 714.08,-228 714.08,-228 714.08,-240 714.08,-240 714.08,-246 708.08,-252 702.08,-252"/>
<text text-anchor="middle" x="668.96" y="-230.12" font-family="sans" font-size="10.00">seqkit_stats_raw</text>
</g>
<!-- 9&#45;&gt;15 -->
<g id="edge25" class="edge">
<title>9&#45;&gt;15</title>
<path fill="none" stroke="grey" stroke-width="2" d="M441.62,-432.42C490.06,-412.63 567.38,-375.63 618.96,-324 635.83,-307.11 648.79,-283.35 657.29,-264.63"/>
<polygon fill="grey" stroke="grey" stroke-width="2" points="660.4,-266.25 661.14,-255.68 653.97,-263.48 660.4,-266.25"/>
</g>
<!-- 10 -->
<g id="node11" class="node">
<title>10</title>
<path fill="none" stroke="#56d8c1" stroke-width="2" d="M310.96,-252C310.96,-252 246.96,-252 246.96,-252 240.96,-252 234.96,-246 234.96,-240 234.96,-240 234.96,-228 234.96,-228 234.96,-222 240.96,-216 246.96,-216 246.96,-216 310.96,-216 310.96,-216 316.96,-216 322.96,-222 322.96,-228 322.96,-228 322.96,-240 322.96,-240 322.96,-246 316.96,-252 310.96,-252"/>
<text text-anchor="middle" x="278.96" y="-230.12" font-family="sans" font-size="10.00">multiqc_trimmed</text>
</g>
<!-- 10&#45;&gt;1 -->
<g id="edge9" class="edge">
<title>10&#45;&gt;1</title>
<path fill="none" stroke="grey" stroke-width="2" d="M306.44,-215.21C317.83,-206.18 329.81,-194.12 335.96,-180 344.22,-161.03 339.06,-138.17 332.04,-120.37"/>
<polygon fill="grey" stroke="grey" stroke-width="2" points="335.35,-119.21 328.12,-111.47 328.95,-122.03 335.35,-119.21"/>
</g>
<!-- 11&#45;&gt;10 -->
<g id="edge18" class="edge">
<title>11&#45;&gt;10</title>
<path fill="none" stroke="grey" stroke-width="2" d="M287.93,-287.34C286.8,-280.75 285.49,-273.08 284.22,-265.67"/>
<polygon fill="grey" stroke="grey" stroke-width="2" points="287.68,-265.15 282.54,-255.89 280.78,-266.33 287.68,-265.15"/>
</g>
<!-- 12 -->
<g id="node13" class="node">
<title>12</title>
<path fill="none" stroke="#59d856" stroke-width="2" d="M134.21,-324C134.21,-324 89.71,-324 89.71,-324 83.71,-324 77.71,-318 77.71,-312 77.71,-312 77.71,-300 77.71,-300 77.71,-294 83.71,-288 89.71,-288 89.71,-288 134.21,-288 134.21,-288 140.21,-288 146.21,-294 146.21,-300 146.21,-300 146.21,-312 146.21,-312 146.21,-318 140.21,-324 134.21,-324"/>
<text text-anchor="middle" x="111.96" y="-302.12" font-family="sans" font-size="10.00">multiqc_raw</text>
</g>
<!-- 12&#45;&gt;1 -->
<g id="edge13" class="edge">
<title>12&#45;&gt;1</title>
<path fill="none" stroke="grey" stroke-width="2" d="M86.44,-287.22C45.12,-256.32 -27.97,-191.46 11.96,-144 42.81,-107.33 178.67,-96.03 258.28,-92.55"/>
<polygon fill="grey" stroke="grey" stroke-width="2" points="258.15,-96.06 268,-92.16 257.87,-89.06 258.15,-96.06"/>
</g>
<!-- 13&#45;&gt;12 -->
<g id="edge20" class="edge">
<title>13&#45;&gt;12</title>
<path fill="none" stroke="grey" stroke-width="2" d="M216.14,-360.23C198.84,-351.39 177.31,-340.39 158.33,-330.69"/>
<polygon fill="grey" stroke="grey" stroke-width="2" points="160.09,-327.66 149.6,-326.23 156.91,-333.9 160.09,-327.66"/>
</g>
<!-- 14 -->
<g id="node15" class="node">
<title>14</title>
<path fill="none" stroke="#d6d856" stroke-width="2" d="M561.33,-180C561.33,-180 508.58,-180 508.58,-180 502.58,-180 496.58,-174 496.58,-168 496.58,-168 496.58,-156 496.58,-156 496.58,-150 502.58,-144 508.58,-144 508.58,-144 561.33,-144 561.33,-144 567.33,-144 573.33,-150 573.33,-156 573.33,-156 573.33,-168 573.33,-168 573.33,-174 567.33,-180 561.33,-180"/>
<text text-anchor="middle" x="534.96" y="-158.12" font-family="sans" font-size="10.00">plot_read_hist</text>
</g>
<!-- 14&#45;&gt;1 -->
<g id="edge8" class="edge">
<title>14&#45;&gt;1</title>
<path fill="none" stroke="grey" stroke-width="2" d="M495.77,-146.67C493.13,-145.75 490.51,-144.86 487.96,-144 450.6,-131.46 408.29,-118.34 375.11,-108.29"/>
<polygon fill="grey" stroke="grey" stroke-width="2" points="376.35,-105.01 365.77,-105.47 374.33,-111.71 376.35,-105.01"/>
</g>
<!-- 15&#45;&gt;14 -->
<g id="edge24" class="edge">
<title>15&#45;&gt;14</title>
<path fill="none" stroke="grey" stroke-width="2" d="M634.8,-215.15C618.26,-206.52 598.18,-196.02 580.37,-186.72"/>
<polygon fill="grey" stroke="grey" stroke-width="2" points="582.22,-183.74 571.74,-182.21 578.98,-189.95 582.22,-183.74"/>
</g>
<!-- 18 -->
<g id="node19" class="node">
<title>18</title>
<path fill="none" stroke="#68d856" stroke-width="2" d="M684.58,-180C684.58,-180 603.33,-180 603.33,-180 597.33,-180 591.33,-174 591.33,-168 591.33,-168 591.33,-156 591.33,-156 591.33,-150 597.33,-144 603.33,-144 603.33,-144 684.58,-144 684.58,-144 690.58,-144 696.58,-150 696.58,-156 696.58,-156 696.58,-168 696.58,-168 696.58,-174 690.58,-180 684.58,-180"/>
<text text-anchor="middle" x="643.96" y="-158.12" font-family="sans" font-size="10.00">qiime2_manifest_file</text>
</g>
<!-- 15&#45;&gt;18 -->
<g id="edge28" class="edge">
<title>15&#45;&gt;18</title>
<path fill="none" stroke="grey" stroke-width="2" d="M662.65,-215.34C660.24,-208.59 657.42,-200.69 654.71,-193.11"/>
<polygon fill="grey" stroke="grey" stroke-width="2" points="658.03,-191.99 651.37,-183.75 651.44,-194.35 658.03,-191.99"/>
</g>
<!-- 21 -->
<g id="node22" class="node">
<title>21</title>
<path fill="none" stroke="#afd856" stroke-width="2" d="M947.96,-180C947.96,-180 865.96,-180 865.96,-180 859.96,-180 853.96,-174 853.96,-168 853.96,-168 853.96,-156 853.96,-156 853.96,-150 859.96,-144 865.96,-144 865.96,-144 947.96,-144 947.96,-144 953.96,-144 959.96,-150 959.96,-156 959.96,-156 959.96,-168 959.96,-168 959.96,-174 953.96,-180 947.96,-180"/>
<text text-anchor="middle" x="906.96" y="-158.12" font-family="sans" font-size="10.00">mothur_mapping_file</text>
</g>
<!-- 15&#45;&gt;21 -->
<g id="edge31" class="edge">
<title>15&#45;&gt;21</title>
<path fill="none" stroke="grey" stroke-width="2" d="M714.85,-219.5C750.64,-208.98 800.83,-194.21 840.94,-182.42"/>
<polygon fill="grey" stroke="grey" stroke-width="2" points="841.8,-185.81 850.4,-179.63 839.82,-179.1 841.8,-185.81"/>
</g>
<!-- 16&#45;&gt;14 -->
<g id="edge22" class="edge">
<title>16&#45;&gt;14</title>
<path fill="none" stroke="grey" stroke-width="2" d="M565.28,-287.33C574.51,-269.16 585.38,-240.2 576.96,-216 573.77,-206.85 568.28,-198.1 562.3,-190.43"/>
<polygon fill="grey" stroke="grey" stroke-width="2" points="565.12,-188.35 555.97,-183.02 559.8,-192.9 565.12,-188.35"/>
</g>
<!-- 17&#45;&gt;14 -->
<g id="edge23" class="edge">
<title>17&#45;&gt;14</title>
<path fill="none" stroke="grey" stroke-width="2" d="M515.52,-215.34C518.03,-208.59 520.96,-200.69 523.77,-193.11"/>
<polygon fill="grey" stroke="grey" stroke-width="2" points="527.05,-194.33 527.26,-183.74 520.49,-191.9 527.05,-194.33"/>
</g>
<!-- 18&#45;&gt;0 -->
<g id="edge6" class="edge">
<title>18&#45;&gt;0</title>
<path fill="none" stroke="grey" stroke-width="2" d="M595.53,-143.24C580.08,-135.01 564.73,-123.53 555.96,-108 548.09,-94.07 546.79,-85.11 555.96,-72 575.53,-44.01 611.55,-30.75 642.79,-24.49"/>
<polygon fill="grey" stroke="grey" stroke-width="2" points="643.15,-27.99 652.4,-22.81 641.94,-21.09 643.15,-27.99"/>
</g>
<!-- 19 -->
<g id="node20" class="node">
<title>19</title>
<path fill="none" stroke="#56a9d8" stroke-width="2" d="M679.46,-108C679.46,-108 576.46,-108 576.46,-108 570.46,-108 564.46,-102 564.46,-96 564.46,-96 564.46,-84 564.46,-84 564.46,-78 570.46,-72 576.46,-72 576.46,-72 679.46,-72 679.46,-72 685.46,-72 691.46,-78 691.46,-84 691.46,-84 691.46,-96 691.46,-96 691.46,-102 685.46,-108 679.46,-108"/>
<text text-anchor="middle" x="627.96" y="-86.12" font-family="sans" font-size="10.00">qiime2_sample_metadata</text>
</g>
<!-- 18&#45;&gt;19 -->
<g id="edge30" class="edge">
<title>18&#45;&gt;19</title>
<path fill="none" stroke="grey" stroke-width="2" d="M639.92,-143.34C638.4,-136.67 636.62,-128.89 634.9,-121.39"/>
<polygon fill="grey" stroke="grey" stroke-width="2" points="638.37,-120.82 632.73,-111.85 631.54,-122.38 638.37,-120.82"/>
</g>
<!-- 19&#45;&gt;0 -->
<g id="edge5" class="edge">
<title>19&#45;&gt;0</title>
<path fill="none" stroke="grey" stroke-width="2" d="M646.38,-71.34C654.44,-63.6 664.08,-54.36 673,-45.81"/>
<polygon fill="grey" stroke="grey" stroke-width="2" points="675.31,-48.44 680.1,-39 670.46,-43.39 675.31,-48.44"/>
</g>
<!-- 20 -->
<g id="node21" class="node">
<title>20</title>
<path fill="none" stroke="#d89556" stroke-width="2" d="M806.33,-180C806.33,-180 741.58,-180 741.58,-180 735.58,-180 729.58,-174 729.58,-168 729.58,-168 729.58,-156 729.58,-156 729.58,-150 735.58,-144 741.58,-144 741.58,-144 806.33,-144 806.33,-144 812.33,-144 818.33,-150 818.33,-156 818.33,-156 818.33,-168 818.33,-168 818.33,-174 812.33,-180 806.33,-180"/>
<text text-anchor="middle" x="773.96" y="-158.12" font-family="sans" font-size="10.00">import_metadata</text>
</g>
<!-- 20&#45;&gt;19 -->
<g id="edge29" class="edge">
<title>20&#45;&gt;19</title>
<path fill="none" stroke="grey" stroke-width="2" d="M736.74,-143.15C718.62,-134.47 696.59,-123.91 677.11,-114.56"/>
<polygon fill="grey" stroke="grey" stroke-width="2" points="678.62,-111.41 668.09,-110.24 675.6,-117.72 678.62,-111.41"/>
</g>
<!-- 22 -->
<g id="node23" class="node">
<title>22</title>
<path fill="none" stroke="#c6d856" stroke-width="2" d="M826.21,-108C826.21,-108 721.71,-108 721.71,-108 715.71,-108 709.71,-102 709.71,-96 709.71,-96 709.71,-84 709.71,-84 709.71,-78 715.71,-72 721.71,-72 721.71,-72 826.21,-72 826.21,-72 832.21,-72 838.21,-78 838.21,-84 838.21,-84 838.21,-96 838.21,-96 838.21,-102 832.21,-108 826.21,-108"/>
<text text-anchor="middle" x="773.96" y="-86.12" font-family="sans" font-size="10.00">mothur_sample_metadata</text>
</g>
<!-- 20&#45;&gt;22 -->
<g id="edge33" class="edge">
<title>20&#45;&gt;22</title>
<path fill="none" stroke="grey" stroke-width="2" d="M773.96,-143.34C773.96,-136.75 773.96,-129.08 773.96,-121.67"/>
<polygon fill="grey" stroke="grey" stroke-width="2" points="777.46,-121.93 773.96,-111.93 770.46,-121.93 777.46,-121.93"/>
</g>
<!-- 23 -->
<g id="node24" class="node">
<title>23</title>
<path fill="none" stroke="#56d89a" stroke-width="2" d="M981.33,-108C981.33,-108 868.58,-108 868.58,-108 862.58,-108 856.58,-102 856.58,-96 856.58,-96 856.58,-84 856.58,-84 856.58,-78 862.58,-72 868.58,-72 868.58,-72 981.33,-72 981.33,-72 987.33,-72 993.33,-78 993.33,-84 993.33,-84 993.33,-96 993.33,-96 993.33,-102 987.33,-108 981.33,-108"/>
<text text-anchor="middle" x="924.96" y="-86.12" font-family="sans" font-size="10.00">update_samples_units_files</text>
</g>
<!-- 20&#45;&gt;23 -->
<g id="edge35" class="edge">
<title>20&#45;&gt;23</title>
<path fill="none" stroke="grey" stroke-width="2" d="M812.45,-143.15C831.37,-134.38 854.41,-123.71 874.7,-114.3"/>
<polygon fill="grey" stroke="grey" stroke-width="2" points="875.93,-117.59 883.53,-110.21 872.98,-111.24 875.93,-117.59"/>
</g>
<!-- 21&#45;&gt;0 -->
<g id="edge2" class="edge">
<title>21&#45;&gt;0</title>
<path fill="none" stroke="grey" stroke-width="2" d="M960.64,-143.34C976.8,-135.23 992.68,-123.8 1001.96,-108 1010.06,-94.2 1012.24,-84.26 1001.96,-72 971.58,-35.81 837.81,-24.32 759.19,-20.68"/>
<polygon fill="grey" stroke="grey" stroke-width="2" points="759.77,-17.2 749.63,-20.27 759.47,-24.2 759.77,-17.2"/>
</g>
<!-- 21&#45;&gt;22 -->
<g id="edge32" class="edge">
<title>21&#45;&gt;22</title>
<path fill="none" stroke="grey" stroke-width="2" d="M873.05,-143.15C856.72,-134.56 836.89,-124.12 819.28,-114.85"/>
<polygon fill="grey" stroke="grey" stroke-width="2" points="820.96,-111.78 810.48,-110.22 817.7,-117.98 820.96,-111.78"/>
</g>
<!-- 21&#45;&gt;23 -->
<g id="edge34" class="edge">
<title>21&#45;&gt;23</title>
<path fill="none" stroke="grey" stroke-width="2" d="M911.5,-143.34C913.21,-136.67 915.22,-128.89 917.14,-121.39"/>
<polygon fill="grey" stroke="grey" stroke-width="2" points="920.5,-122.39 919.6,-111.83 913.72,-120.65 920.5,-122.39"/>
</g>
<!-- 22&#45;&gt;0 -->
<g id="edge1" class="edge">
<title>22&#45;&gt;0</title>
<path fill="none" stroke="grey" stroke-width="2" d="M755.54,-71.34C747.47,-63.6 737.83,-54.36 728.91,-45.81"/>
<polygon fill="grey" stroke="grey" stroke-width="2" points="731.45,-43.39 721.81,-39 726.61,-48.44 731.45,-43.39"/>
</g>
<!-- 23&#45;&gt;0 -->
<g id="edge4" class="edge">
<title>23&#45;&gt;0</title>
<path fill="none" stroke="grey" stroke-width="2" d="M867.56,-71.06C834.23,-60.65 792.35,-47.56 758.92,-37.11"/>
<polygon fill="grey" stroke="grey" stroke-width="2" points="760.04,-33.8 749.45,-34.15 757.95,-40.48 760.04,-33.8"/>
</g>
</g>
</svg>
